MFile 1 16 192
MTrk
0 KeySig 0 major
0 TimeSig 4/4 24 8
0 Meta TrkEnd
TrkEnd
MTrk
0 Meta TrkName "Vector"
0 Par ch=1 c=7 v=0
0 PrCh ch=1 p=47
0 Par ch=1 c=7 v=0
1612 Par ch=1 c=7 v=11
1649 Par ch=1 c=7 v=15
1681 Par ch=1 c=7 v=19
1697 Par ch=1 c=7 v=7
1961 Par ch=1 c=7 v=0
2177 Par ch=1 c=7 v=15
2201 Par ch=1 c=7 v=27
2216 Par ch=1 c=7 v=35
2233 Par ch=1 c=7 v=47
2248 Par ch=1 c=7 v=59
2297 On ch=1 n=55 v=127
2313 Par ch=1 c=7 v=35
2321 Par ch=1 c=7 v=27
2329 Par ch=1 c=7 v=11
2345 Par ch=1 c=7 v=0
2584 Par ch=1 c=7 v=19
2600 Par ch=1 c=7 v=27
2617 Par ch=1 c=7 v=35
2657 Par ch=1 c=7 v=43
2769 Par ch=1 c=7 v=57
2785 Par ch=1 c=7 v=61
2905 Par ch=1 c=7 v=51
2936 Par ch=1 c=7 v=43
3001 Par ch=1 c=7 v=47
3024 Par ch=1 c=7 v=35
3049 Par ch=1 c=7 v=27
3057 On ch=1 n=55 v=0
3059 On ch=1 n=57 v=127
3209 Par ch=1 c=7 v=39
3281 Par ch=1 c=7 v=47
3433 Par ch=1 c=7 v=47
3464 Par ch=1 c=7 v=35
3569 Par ch=1 c=7 v=39
3592 Par ch=1 c=7 v=47
3617 Par ch=1 c=7 v=57
3625 Par ch=1 c=7 v=61
3641 Par ch=1 c=7 v=67
3664 Par ch=1 c=7 v=71
3680 Par ch=1 c=7 v=79
3713 Par ch=1 c=7 v=81
3769 On ch=1 n=53 v=127
3777 Par ch=1 c=7 v=85
3825 On ch=1 n=57 v=0
3833 Par ch=1 c=7 v=89
3872 Par ch=1 c=7 v=95
3931 Par ch=1 c=7 v=95
4025 Par ch=1 c=7 v=89
4088 Par ch=1 c=7 v=81
4105 Par ch=1 c=7 v=81
4129 Par ch=1 c=7 v=73
4177 Par ch=1 c=7 v=71
4201 Par ch=1 c=7 v=63
4227 Par ch=1 c=7 v=59
4256 Par ch=1 c=7 v=47
4280 Par ch=1 c=7 v=31
4337 Par ch=1 c=7 v=15
4376 Par ch=1 c=7 v=0
4545 On ch=1 n=55 v=127
4577 On ch=1 n=53 v=0
4729 Par ch=1 c=7 v=7
4768 Par ch=1 c=7 v=19
4825 Par ch=1 c=7 v=23
5192 Par ch=1 c=7 v=27
5225 Par ch=1 c=7 v=15
5273 On ch=1 n=50 v=127
5313 On ch=1 n=55 v=0
5344 Par ch=1 c=7 v=0
5649 Par ch=1 c=7 v=7
5696 Par ch=1 c=7 v=15
5752 Par ch=1 c=7 v=23
5865 Par ch=1 c=7 v=35
5889 Par ch=1 c=7 v=47
5912 Par ch=1 c=7 v=55
5937 Par ch=1 c=7 v=61
5953 Par ch=1 c=7 v=65
6009 On ch=1 n=52 v=127
6041 Par ch=1 c=7 v=63
6055 On ch=1 n=50 v=0
6081 Par ch=1 c=7 v=57
6105 Par ch=1 c=7 v=47
6121 Par ch=1 c=7 v=33
6153 Par ch=1 c=7 v=31
6232 Par ch=1 c=7 v=15
6289 Par ch=1 c=7 v=11
6801 On ch=1 n=47 v=127
6849 On ch=1 n=52 v=0
7544 On ch=1 n=45 v=127
7553 On ch=1 n=47 v=0
8353 On ch=1 n=45 v=0
8353 Meta TrkEnd
TrkEnd
MTrk
0 Par ch=2 c=7 v=103
0 PrCh ch=2 p=73
0 Par ch=2 c=1 v=64
0 Par ch=2 c=91 v=96
0 Par ch=2 c=7 v=107
1612 Par ch=2 c=7 v=111
1649 Par ch=2 c=7 v=117
1681 Par ch=2 c=7 v=123
1697 Par ch=2 c=7 v=127
1961 Par ch=2 c=7 v=123
1987 Par ch=2 c=7 v=121
2001 Par ch=2 c=7 v=115
2017 Par ch=2 c=7 v=111
2129 Par ch=2 c=7 v=105
2137 Par ch=2 c=7 v=101
2144 Par ch=2 c=7 v=97
2160 Par ch=2 c=7 v=89
2177 Par ch=2 c=7 v=89
2201 Par ch=2 c=7 v=89
2217 Par ch=2 c=7 v=95
2233 Par ch=2 c=7 v=99
2249 Par ch=2 c=7 v=105
2297 On ch=2 n=91 v=127
2313 Par ch=2 c=7 v=117
2323 Par ch=2 c=7 v=121
2329 Par ch=2 c=7 v=127
2345 Par ch=2 c=7 v=127
2441 Par ch=2 c=7 v=127
2497 Par ch=2 c=7 v=121
2536 Par ch=2 c=7 v=119
2553 Par ch=2 c=7 v=115
2585 Par ch=2 c=7 v=109
2601 Par ch=2 c=7 v=107
2617 Par ch=2 c=7 v=103
2657 Par ch=2 c=7 v=101
2769 Par ch=2 c=7 v=103
2785 Par ch=2 c=7 v=105
2905 Par ch=2 c=7 v=109
2937 Par ch=2 c=7 v=111
3001 Par ch=2 c=7 v=111
3025 Par ch=2 c=7 v=109
3049 Par ch=2 c=7 v=105
3057 On ch=2 n=91 v=0
3059 On ch=2 n=93 v=127
3209 Par ch=2 c=7 v=107
3281 Par ch=2 c=7 v=109
3433 Par ch=2 c=7 v=109
3464 Par ch=2 c=7 v=105
3569 Par ch=2 c=7 v=99
3593 Par ch=2 c=7 v=97
3617 Par ch=2 c=7 v=91
3625 Par ch=2 c=7 v=89
3641 Par ch=2 c=7 v=85
3665 Par ch=2 c=7 v=81
3681 Par ch=2 c=7 v=79
3713 Par ch=2 c=7 v=71
3769 On ch=2 n=89 v=127
3777 Par ch=2 c=7 v=67
3825 On ch=2 n=93 v=0
3833 Par ch=2 c=7 v=71
3872 Par ch=2 c=7 v=73
3931 Par ch=2 c=7 v=73
4025 Par ch=2 c=7 v=71
4089 Par ch=2 c=7 v=79
4105 Par ch=2 c=7 v=81
4129 Par ch=2 c=7 v=85
4177 Par ch=2 c=7 v=87
4201 Par ch=2 c=7 v=89
4227 Par ch=2 c=7 v=95
4256 Par ch=2 c=7 v=97
4281 Par ch=2 c=7 v=97
4337 Par ch=2 c=7 v=97
4377 Par ch=2 c=7 v=95
4401 Par ch=2 c=7 v=89
4433 Par ch=2 c=7 v=87
4457 Par ch=2 c=7 v=85
4480 Par ch=2 c=7 v=81
4521 Par ch=2 c=7 v=79
4545 On ch=2 n=91 v=127
4577 On ch=2 n=89 v=0
4579 Par ch=2 c=7 v=69
4612 Par ch=2 c=7 v=65
4641 Par ch=2 c=7 v=59
4672 Par ch=2 c=7 v=55
4697 Par ch=2 c=7 v=43
4729 Par ch=2 c=7 v=35
4768 Par ch=2 c=7 v=27
4827 Par ch=2 c=7 v=23
5193 Par ch=2 c=7 v=33
5225 Par ch=2 c=7 v=43
5273 On ch=2 n=86 v=127
5313 On ch=2 n=91 v=0
5345 Par ch=2 c=7 v=33
5649 Par ch=2 c=7 v=23
5696 Par ch=2 c=7 v=15
5753 Par ch=2 c=7 v=7
5865 Par ch=2 c=7 v=7
5889 Par ch=2 c=7 v=19
5912 Par ch=2 c=7 v=27
5937 Par ch=2 c=7 v=35
5953 Par ch=2 c=7 v=43
6009 On ch=2 n=88 v=127
6041 Par ch=2 c=7 v=59
6057 On ch=2 n=86 v=0
6081 Par ch=2 c=7 v=65
6105 Par ch=2 c=7 v=71
6121 Par ch=2 c=7 v=73
6153 Par ch=2 c=7 v=81
6232 Par ch=2 c=7 v=83
6289 Par ch=2 c=7 v=87
6337 Par ch=2 c=7 v=89
6377 Par ch=2 c=7 v=95
6409 Par ch=2 c=7 v=97
6529 Par ch=2 c=7 v=99
6577 Par ch=2 c=7 v=95
6625 Par ch=2 c=7 v=95
6673 Par ch=2 c=7 v=89
6801 On ch=2 n=83 v=127
6849 On ch=2 n=88 v=0
6873 Par ch=2 c=7 v=83
6920 Par ch=2 c=7 v=79
6968 Par ch=2 c=7 v=73
7137 Par ch=2 c=7 v=67
7544 On ch=2 n=81 v=127
7553 On ch=2 n=83 v=0
7616 Par ch=2 c=7 v=71
7633 Par ch=2 c=7 v=79
7731 Par ch=2 c=7 v=81
7825 Par ch=2 c=7 v=85
7905 Par ch=2 c=7 v=89
7945 Par ch=2 c=7 v=91
8185 Par ch=2 c=7 v=97
8281 Par ch=2 c=7 v=95
8297 Par ch=2 c=7 v=89
8305 Par ch=2 c=7 v=85
8329 Par ch=2 c=7 v=81
8345 Par ch=2 c=7 v=73
8353 On ch=2 n=81 v=0
8353 Meta TrkEnd
TrkEnd
MTrk
0 Par ch=3 c=7 v=0
0 PrCh ch=3 p=75
0 Par ch=3 c=91 v=96
0 Par ch=3 c=7 v=0
1612 Par ch=3 c=7 v=11
1649 Par ch=3 c=7 v=15
1683 Par ch=3 c=7 v=19
1699 Par ch=3 c=7 v=7
1961 Par ch=3 c=7 v=0
1987 Par ch=3 c=7 v=0
2001 Par ch=3 c=7 v=0
2017 Par ch=3 c=7 v=0
2129 Par ch=3 c=7 v=0
2137 Par ch=3 c=7 v=0
2145 Par ch=3 c=7 v=0
2161 Par ch=3 c=7 v=0
2177 Par ch=3 c=7 v=15
2201 Par ch=3 c=7 v=27
2217 Par ch=3 c=7 v=35
2233 Par ch=3 c=7 v=47
2249 Par ch=3 c=7 v=59
2297 On ch=3 n=91 v=127
2313 Par ch=3 c=7 v=35
2323 Par ch=3 c=7 v=27
2329 Par ch=3 c=7 v=11
2345 Par ch=3 c=7 v=0
2441 Par ch=3 c=7 v=0
2497 Par ch=3 c=7 v=0
2537 Par ch=3 c=7 v=0
2553 Par ch=3 c=7 v=0
2585 Par ch=3 c=7 v=19
2601 Par ch=3 c=7 v=27
2619 Par ch=3 c=7 v=35
2657 Par ch=3 c=7 v=43
2769 Par ch=3 c=7 v=57
2785 Par ch=3 c=7 v=61
2905 Par ch=3 c=7 v=57
2937 Par ch=3 c=7 v=51
3003 Par ch=3 c=7 v=47
3025 Par ch=3 c=7 v=35
3049 Par ch=3 c=7 v=27
3057 On ch=3 n=91 v=0
3059 On ch=3 n=93 v=127
3211 Par ch=3 c=7 v=39
3281 Par ch=3 c=7 v=47
3433 Par ch=3 c=7 v=55
3465 Par ch=3 c=7 v=61
3569 Par ch=3 c=7 v=71
3593 Par ch=3 c=7 v=73
3617 Par ch=3 c=7 v=81
3625 Par ch=3 c=7 v=83
3641 Par ch=3 c=7 v=87
3665 Par ch=3 c=7 v=89
3681 Par ch=3 c=7 v=95
3715 Par ch=3 c=7 v=91
3769 On ch=3 n=89 v=127
3777 Par ch=3 c=7 v=87
3825 On ch=3 n=93 v=0
3833 Par ch=3 c=7 v=81
3873 Par ch=3 c=7 v=79
3931 Par ch=3 c=7 v=73
4025 Par ch=3 c=7 v=71
4089 Par ch=3 c=7 v=79
4105 Par ch=3 c=7 v=81
4129 Par ch=3 c=7 v=73
4177 Par ch=3 c=7 v=71
4201 Par ch=3 c=7 v=63
4227 Par ch=3 c=7 v=59
4257 Par ch=3 c=7 v=47
4281 Par ch=3 c=7 v=31
4337 Par ch=3 c=7 v=15
4377 Par ch=3 c=7 v=0
4401 Par ch=3 c=7 v=0
4433 Par ch=3 c=7 v=0
4457 Par ch=3 c=7 v=0
4481 Par ch=3 c=7 v=0
4521 Par ch=3 c=7 v=0
4545 On ch=3 n=91 v=127
4577 On ch=3 n=89 v=0
4580 Par ch=3 c=7 v=0
4612 Par ch=3 c=7 v=0
4641 Par ch=3 c=7 v=0
4673 Par ch=3 c=7 v=0
4697 Par ch=3 c=7 v=0
4729 Par ch=3 c=7 v=7
4769 Par ch=3 c=7 v=19
4827 Par ch=3 c=7 v=23
5193 Par ch=3 c=7 v=27
5225 Par ch=3 c=7 v=15
5273 On ch=3 n=86 v=127
5313 On ch=3 n=91 v=0
5345 Par ch=3 c=7 v=0
5649 Par ch=3 c=7 v=7
5697 Par ch=3 c=7 v=15
5753 Par ch=3 c=7 v=7
5865 Par ch=3 c=7 v=7
5889 Par ch=3 c=7 v=19
5913 Par ch=3 c=7 v=27
5939 Par ch=3 c=7 v=35
5953 Par ch=3 c=7 v=43
6009 On ch=3 n=88 v=127
6041 Par ch=3 c=7 v=59
6057 On ch=3 n=86 v=0
6081 Par ch=3 c=7 v=57
6105 Par ch=3 c=7 v=47
6121 Par ch=3 c=7 v=33
6153 Par ch=3 c=7 v=31
6233 Par ch=3 c=7 v=15
6289 Par ch=3 c=7 v=11
6337 Par ch=3 c=7 v=0
6377 Par ch=3 c=7 v=0
6409 Par ch=3 c=7 v=0
6531 Par ch=3 c=7 v=0
6577 Par ch=3 c=7 v=0
6625 Par ch=3 c=7 v=0
6673 Par ch=3 c=7 v=0
6803 On ch=3 n=83 v=127
6849 On ch=3 n=88 v=0
6873 Par ch=3 c=7 v=0
6921 Par ch=3 c=7 v=0
6969 Par ch=3 c=7 v=0
7137 Par ch=3 c=7 v=0
7545 On ch=3 n=81 v=127
7555 On ch=3 n=83 v=0
7617 Par ch=3 c=7 v=0
7633 Par ch=3 c=7 v=0
7731 Par ch=3 c=7 v=0
7825 Par ch=3 c=7 v=0
7905 Par ch=3 c=7 v=0
7947 Par ch=3 c=7 v=0
8185 Par ch=3 c=7 v=0
8281 Par ch=3 c=7 v=0
8297 Par ch=3 c=7 v=0
8307 Par ch=3 c=7 v=0
8329 Par ch=3 c=7 v=0
8345 Par ch=3 c=7 v=0
8353 On ch=3 n=81 v=0
8353 Meta TrkEnd
TrkEnd
MTrk
0 Par ch=4 c=7 v=65
0 PrCh ch=4 p=71
0 Par ch=4 c=1 v=80
0 Par ch=4 c=91 v=96
0 Par ch=4 c=7 v=59
1612 Par ch=4 c=7 v=47
1649 Par ch=4 c=7 v=35
1683 Par ch=4 c=7 v=19
1699 Par ch=4 c=7 v=7
1961 Par ch=4 c=7 v=15
1987 Par ch=4 c=7 v=27
2003 Par ch=4 c=7 v=39
2017 Par ch=4 c=7 v=47
2131 Par ch=4 c=7 v=61
2137 Par ch=4 c=7 v=69
2145 Par ch=4 c=7 v=73
2161 Par ch=4 c=7 v=81
2177 Par ch=4 c=7 v=83
2203 Par ch=4 c=7 v=81
2217 Par ch=4 c=7 v=79
2233 Par ch=4 c=7 v=71
2249 Par ch=4 c=7 v=63
2299 On ch=4 n=91 v=127
2313 Par ch=4 c=7 v=35
2323 Par ch=4 c=7 v=27
2331 Par ch=4 c=7 v=11
2347 Par ch=4 c=7 v=0
2441 Par ch=4 c=7 v=11
2497 Par ch=4 c=7 v=23
2537 Par ch=4 c=7 v=33
2553 Par ch=4 c=7 v=39
2585 Par ch=4 c=7 v=55
2601 Par ch=4 c=7 v=59
2619 Par ch=4 c=7 v=65
2657 Par ch=4 c=7 v=69
2769 Par ch=4 c=7 v=65
2785 Par ch=4 c=7 v=61
2905 Par ch=4 c=7 v=51
2937 Par ch=4 c=7 v=43
3003 Par ch=4 c=7 v=47
3025 Par ch=4 c=7 v=57
3049 Par ch=4 c=7 v=63
3057 On ch=4 n=91 v=0
3059 On ch=4 n=93 v=127
3211 Par ch=4 c=7 v=59
3283 Par ch=4 c=7 v=55
3433 Par ch=4 c=7 v=47
3465 Par ch=4 c=7 v=35
3571 Par ch=4 c=7 v=39
3593 Par ch=4 c=7 v=47
3617 Par ch=4 c=7 v=57
3625 Par ch=4 c=7 v=61
3643 Par ch=4 c=7 v=67
3665 Par ch=4 c=7 v=71
3681 Par ch=4 c=7 v=79
3715 Par ch=4 c=7 v=71
3769 On ch=4 n=89 v=127
3779 Par ch=4 c=7 v=67
3825 On ch=4 n=93 v=0
3833 Par ch=4 c=7 v=71
3873 Par ch=4 c=7 v=73
3932 Par ch=4 c=7 v=79
4025 Par ch=4 c=7 v=81
4089 Par ch=4 c=7 v=89
4107 Par ch=4 c=7 v=91
4131 Par ch=4 c=7 v=87
4177 Par ch=4 c=7 v=85
4201 Par ch=4 c=7 v=81
4227 Par ch=4 c=7 v=79
4257 Par ch=4 c=7 v=73
4281 Par ch=4 c=7 v=71
4339 Par ch=4 c=7 v=71
4377 Par ch=4 c=7 v=79
4401 Par ch=4 c=7 v=81
4433 Par ch=4 c=7 v=85
4459 Par ch=4 c=7 v=87
4481 Par ch=4 c=7 v=91
4521 Par ch=4 c=7 v=95
4545 On ch=4 n=91 v=127
4578 On ch=4 n=89 v=0
4580 Par ch=4 c=7 v=101
4612 Par ch=4 c=7 v=103
4643 Par ch=4 c=7 v=107
4673 Par ch=4 c=7 v=109
4697 Par ch=4 c=7 v=113
4729 Par ch=4 c=7 v=117
4769 Par ch=4 c=7 v=121
4827 Par ch=4 c=7 v=121
5193 Par ch=4 c=7 v=119
5227 Par ch=4 c=7 v=113
5273 On ch=4 n=86 v=127
5314 On ch=4 n=91 v=0
5345 Par ch=4 c=7 v=119
5649 Par ch=4 c=7 v=121
5697 Par ch=4 c=7 v=123
5753 Par ch=4 c=7 v=121
5865 Par ch=4 c=7 v=117
5889 Par ch=4 c=7 v=111
5913 Par ch=4 c=7 v=109
5939 Par ch=4 c=7 v=105
5953 Par ch=4 c=7 v=103
6009 On ch=4 n=88 v=127
6041 Par ch=4 c=7 v=105
6057 On ch=4 n=86 v=0
6081 Par ch=4 c=7 v=103
6105 Par ch=4 c=7 v=99
6121 Par ch=4 c=7 v=97
6155 Par ch=4 c=7 v=91
6233 Par ch=4 c=7 v=89
6291 Par ch=4 c=7 v=85
6337 Par ch=4 c=7 v=81
6377 Par ch=4 c=7 v=79
6409 Par ch=4 c=7 v=71
6531 Par ch=4 c=7 v=71
6577 Par ch=4 c=7 v=79
6627 Par ch=4 c=7 v=79
6675 Par ch=4 c=7 v=83
6803 On ch=4 n=83 v=127
6849 On ch=4 n=88 v=0
6873 Par ch=4 c=7 v=89
6921 Par ch=4 c=7 v=95
6969 Par ch=4 c=7 v=97
7137 Par ch=4 c=7 v=101
7545 On ch=4 n=81 v=127
7555 On ch=4 n=83 v=0
7617 Par ch=4 c=7 v=97
7633 Par ch=4 c=7 v=95
7731 Par ch=4 c=7 v=89
7825 Par ch=4 c=7 v=87
7907 Par ch=4 c=7 v=83
7947 Par ch=4 c=7 v=81
8187 Par ch=4 c=7 v=71
8283 Par ch=4 c=7 v=79
8297 Par ch=4 c=7 v=83
8307 Par ch=4 c=7 v=87
8329 Par ch=4 c=7 v=91
8345 Par ch=4 c=7 v=97
8354 On ch=4 n=81 v=0
8354 Meta TrkEnd
TrkEnd
MTrk
0 Meta TrkName "Chords"
1536 PrCh ch=5 p=1
1537 Par ch=5 c=7 v=111
1539 On ch=5 n=64 v=96
1539 On ch=5 n=66 v=96
1539 On ch=5 n=71 v=96
1675 On ch=5 n=64 v=0
1679 On ch=5 n=66 v=0
1681 On ch=5 n=71 v=0
1728 On ch=5 n=64 v=96
1728 On ch=5 n=66 v=96
1728 On ch=5 n=71 v=96
1776 On ch=5 n=71 v=0
1776 On ch=5 n=66 v=0
1776 On ch=5 n=64 v=0
1824 On ch=5 n=66 v=96
1825 On ch=5 n=64 v=96
1825 On ch=5 n=71 v=96
1954 On ch=5 n=64 v=0
1959 On ch=5 n=71 v=0
1960 On ch=5 n=66 v=0
2016 On ch=5 n=64 v=96
2016 On ch=5 n=66 v=96
2016 On ch=5 n=71 v=96
2064 On ch=5 n=71 v=0
2064 On ch=5 n=66 v=0
2064 On ch=5 n=64 v=0
2112 On ch=5 n=64 v=96
2112 On ch=5 n=66 v=96
2112 On ch=5 n=71 v=96
2251 On ch=5 n=66 v=0
2256 On ch=5 n=71 v=0
2256 On ch=5 n=64 v=0
2307 On ch=5 n=64 v=96
2307 On ch=5 n=69 v=96
2307 On ch=5 n=74 v=96
2443 On ch=5 n=74 v=0
2443 On ch=5 n=69 v=0
2443 On ch=5 n=64 v=0
2496 On ch=5 n=69 v=96
2496 On ch=5 n=74 v=96
2499 On ch=5 n=64 v=96
2539 On ch=5 n=64 v=0
2539 On ch=5 n=74 v=0
2544 On ch=5 n=69 v=0
2592 On ch=5 n=64 v=96
2595 On ch=5 n=69 v=96
2595 On ch=5 n=74 v=96
2723 On ch=5 n=69 v=0
2723 On ch=5 n=64 v=0
2727 On ch=5 n=74 v=0
2784 On ch=5 n=64 v=96
2784 On ch=5 n=69 v=96
2784 On ch=5 n=74 v=96
2832 On ch=5 n=74 v=0
2832 On ch=5 n=69 v=0
2832 On ch=5 n=64 v=0
2880 On ch=5 n=64 v=96
2880 On ch=5 n=69 v=96
2880 On ch=5 n=74 v=96
3024 On ch=5 n=74 v=0
3024 On ch=5 n=69 v=0
3024 On ch=5 n=64 v=0
3072 On ch=5 n=64 v=96
3075 On ch=5 n=68 v=96
3075 On ch=5 n=73 v=96
3215 On ch=5 n=73 v=0
3219 On ch=5 n=68 v=0
3219 On ch=5 n=64 v=0
3264 On ch=5 n=64 v=96
3264 On ch=5 n=68 v=96
3264 On ch=5 n=73 v=96
3312 On ch=5 n=64 v=0
3315 On ch=5 n=73 v=0
3315 On ch=5 n=68 v=0
3360 On ch=5 n=64 v=96
3360 On ch=5 n=68 v=96
3360 On ch=5 n=73 v=96
3496 On ch=5 n=73 v=0
3496 On ch=5 n=68 v=0
3496 On ch=5 n=64 v=0
3552 On ch=5 n=64 v=96
3552 On ch=5 n=68 v=96
3552 On ch=5 n=73 v=96
3595 On ch=5 n=73 v=0
3600 On ch=5 n=68 v=0
3600 On ch=5 n=64 v=0
3648 On ch=5 n=64 v=96
3648 On ch=5 n=73 v=96
3651 On ch=5 n=68 v=96
3787 On ch=5 n=64 v=0
3791 On ch=5 n=68 v=0
3792 On ch=5 n=73 v=0
3843 On ch=5 n=64 v=96
3843 On ch=5 n=69 v=96
3843 On ch=5 n=74 v=96
3983 On ch=5 n=74 v=0
3983 On ch=5 n=69 v=0
3983 On ch=5 n=64 v=0
4032 On ch=5 n=64 v=96
4032 On ch=5 n=69 v=96
4032 On ch=5 n=74 v=96
4075 On ch=5 n=69 v=0
4080 On ch=5 n=74 v=0
4080 On ch=5 n=64 v=0
4123 On ch=5 n=64 v=96
4128 On ch=5 n=69 v=96
4128 On ch=5 n=74 v=96
4263 On ch=5 n=64 v=0
4264 On ch=5 n=74 v=0
4264 On ch=5 n=69 v=0
4320 On ch=5 n=69 v=96
4320 On ch=5 n=64 v=96
4320 On ch=5 n=74 v=96
4368 On ch=5 n=74 v=0
4368 On ch=5 n=64 v=0
4368 On ch=5 n=69 v=0
4419 On ch=5 n=64 v=96
4419 On ch=5 n=69 v=96
4419 On ch=5 n=74 v=96
4559 On ch=5 n=74 v=0
4559 On ch=5 n=69 v=0
4559 On ch=5 n=64 v=0
4611 On ch=5 n=64 v=96
4611 On ch=5 n=66 v=96
4611 On ch=5 n=71 v=96
4747 On ch=5 n=64 v=0
4751 On ch=5 n=66 v=0
4753 On ch=5 n=71 v=0
4800 On ch=5 n=64 v=96
4800 On ch=5 n=66 v=96
4800 On ch=5 n=71 v=96
4848 On ch=5 n=71 v=0
4848 On ch=5 n=66 v=0
4848 On ch=5 n=64 v=0
4896 On ch=5 n=66 v=96
4897 On ch=5 n=64 v=96
4897 On ch=5 n=71 v=96
5026 On ch=5 n=64 v=0
5031 On ch=5 n=71 v=0
5032 On ch=5 n=66 v=0
5088 On ch=5 n=64 v=96
5088 On ch=5 n=66 v=96
5088 On ch=5 n=71 v=96
5136 On ch=5 n=71 v=0
5136 On ch=5 n=66 v=0
5136 On ch=5 n=64 v=0
5184 On ch=5 n=64 v=96
5184 On ch=5 n=66 v=96
5184 On ch=5 n=71 v=96
5323 On ch=5 n=66 v=0
5328 On ch=5 n=71 v=0
5328 On ch=5 n=64 v=0
5379 On ch=5 n=64 v=96
5379 On ch=5 n=69 v=96
5379 On ch=5 n=74 v=96
5515 On ch=5 n=74 v=0
5515 On ch=5 n=69 v=0
5515 On ch=5 n=64 v=0
5568 On ch=5 n=69 v=96
5568 On ch=5 n=74 v=96
5571 On ch=5 n=64 v=96
5611 On ch=5 n=64 v=0
5611 On ch=5 n=74 v=0
5616 On ch=5 n=69 v=0
5664 On ch=5 n=64 v=96
5667 On ch=5 n=69 v=96
5667 On ch=5 n=74 v=96
5795 On ch=5 n=69 v=0
5795 On ch=5 n=64 v=0
5799 On ch=5 n=74 v=0
5856 On ch=5 n=64 v=96
5856 On ch=5 n=69 v=96
5856 On ch=5 n=74 v=96
5904 On ch=5 n=74 v=0
5904 On ch=5 n=69 v=0
5904 On ch=5 n=64 v=0
5952 On ch=5 n=64 v=96
5952 On ch=5 n=69 v=96
5952 On ch=5 n=74 v=96
6096 On ch=5 n=74 v=0
6096 On ch=5 n=69 v=0
6096 On ch=5 n=64 v=0
6144 On ch=5 n=64 v=96
6147 On ch=5 n=68 v=96
6147 On ch=5 n=73 v=96
6287 On ch=5 n=73 v=0
6291 On ch=5 n=68 v=0
6291 On ch=5 n=64 v=0
6336 On ch=5 n=64 v=96
6336 On ch=5 n=68 v=96
6336 On ch=5 n=73 v=96
6384 On ch=5 n=64 v=0
6387 On ch=5 n=73 v=0
6387 On ch=5 n=68 v=0
6432 On ch=5 n=64 v=96
6432 On ch=5 n=68 v=96
6432 On ch=5 n=73 v=96
6568 On ch=5 n=73 v=0
6568 On ch=5 n=68 v=0
6568 On ch=5 n=64 v=0
6624 On ch=5 n=64 v=96
6624 On ch=5 n=68 v=96
6624 On ch=5 n=73 v=96
6667 On ch=5 n=73 v=0
6672 On ch=5 n=68 v=0
6672 On ch=5 n=64 v=0
6720 On ch=5 n=64 v=96
6720 On ch=5 n=73 v=96
6723 On ch=5 n=68 v=96
6859 On ch=5 n=64 v=0
6863 On ch=5 n=68 v=0
6864 On ch=5 n=73 v=0
6915 On ch=5 n=64 v=96
6915 On ch=5 n=69 v=96
6915 On ch=5 n=74 v=96
7055 On ch=5 n=74 v=0
7055 On ch=5 n=69 v=0
7055 On ch=5 n=64 v=0
7104 On ch=5 n=64 v=96
7104 On ch=5 n=69 v=96
7104 On ch=5 n=74 v=96
7147 On ch=5 n=69 v=0
7152 On ch=5 n=74 v=0
7152 On ch=5 n=64 v=0
7195 On ch=5 n=64 v=96
7200 On ch=5 n=69 v=96
7200 On ch=5 n=74 v=96
7335 On ch=5 n=64 v=0
7336 On ch=5 n=74 v=0
7336 On ch=5 n=69 v=0
7392 On ch=5 n=69 v=96
7392 On ch=5 n=64 v=96
7392 On ch=5 n=74 v=96
7440 On ch=5 n=74 v=0
7440 On ch=5 n=64 v=0
7440 On ch=5 n=69 v=0
7491 On ch=5 n=64 v=96
7491 On ch=5 n=69 v=96
7491 On ch=5 n=74 v=96
7631 On ch=5 n=74 v=0
7631 On ch=5 n=69 v=0
7631 On ch=5 n=64 v=0
7688 On ch=5 n=71 v=96
7688 On ch=5 n=68 v=96
7688 On ch=5 n=64 v=96
8352 On ch=5 n=64 v=0
8352 On ch=5 n=68 v=0
8360 On ch=5 n=71 v=0
8360 Meta TrkEnd
TrkEnd
MTrk
0 Meta TrkName "Bass"
0 PrCh ch=6 p=33
0 Par ch=6 c=7 v=111
0 Par ch=6 c=91 v=0
1539 On ch=6 n=28 v=112
1679 On ch=6 n=28 v=0
1712 On ch=6 n=30 v=112
1800 On ch=6 n=30 v=0
1824 On ch=6 n=35 v=112
1952 On ch=6 n=35 v=0
2000 On ch=6 n=30 v=112
2075 On ch=6 n=30 v=0
2112 On ch=6 n=35 v=112
2248 On ch=6 n=35 v=0
2307 On ch=6 n=28 v=112
2439 On ch=6 n=28 v=0
2480 On ch=6 n=33 v=112
2563 On ch=6 n=33 v=0
2592 On ch=6 n=38 v=112
2720 On ch=6 n=38 v=0
2768 On ch=6 n=33 v=112
2840 On ch=6 n=33 v=0
2880 On ch=6 n=38 v=112
3008 On ch=6 n=38 v=0
3075 On ch=6 n=28 v=112
3193 On ch=6 n=28 v=0
3248 On ch=6 n=32 v=112
3328 On ch=6 n=32 v=0
3360 On ch=6 n=37 v=112
3488 On ch=6 n=37 v=0
3536 On ch=6 n=32 v=112
3600 On ch=6 n=32 v=0
3648 On ch=6 n=37 v=112
3792 On ch=6 n=37 v=0
3843 On ch=6 n=28 v=112
3979 On ch=6 n=28 v=0
4016 On ch=6 n=32 v=112
4104 On ch=6 n=32 v=0
4128 On ch=6 n=35 v=112
4256 On ch=6 n=35 v=0
4304 On ch=6 n=32 v=112
4368 On ch=6 n=32 v=0
4416 On ch=6 n=35 v=112
4560 On ch=6 n=35 v=0
4611 On ch=6 n=28 v=112
4751 On ch=6 n=28 v=0
4784 On ch=6 n=30 v=112
4872 On ch=6 n=30 v=0
4896 On ch=6 n=35 v=112
5024 On ch=6 n=35 v=0
5072 On ch=6 n=30 v=112
5147 On ch=6 n=30 v=0
5184 On ch=6 n=35 v=112
5320 On ch=6 n=35 v=0
5379 On ch=6 n=28 v=112
5511 On ch=6 n=28 v=0
5552 On ch=6 n=33 v=112
5635 On ch=6 n=33 v=0
5664 On ch=6 n=38 v=112
5792 On ch=6 n=38 v=0
5840 On ch=6 n=33 v=112
5912 On ch=6 n=33 v=0
5952 On ch=6 n=38 v=112
6080 On ch=6 n=38 v=0
6147 On ch=6 n=28 v=112
6265 On ch=6 n=28 v=0
6320 On ch=6 n=32 v=112
6400 On ch=6 n=32 v=0
6432 On ch=6 n=37 v=112
6560 On ch=6 n=37 v=0
6608 On ch=6 n=32 v=112
6672 On ch=6 n=32 v=0
6720 On ch=6 n=37 v=112
6864 On ch=6 n=37 v=0
6915 On ch=6 n=28 v=112
7051 On ch=6 n=28 v=0
7088 On ch=6 n=32 v=112
7176 On ch=6 n=32 v=0
7200 On ch=6 n=35 v=112
7328 On ch=6 n=35 v=0
7376 On ch=6 n=32 v=112
7440 On ch=6 n=32 v=0
7488 On ch=6 n=35 v=112
7632 On ch=6 n=35 v=0
7688 On ch=6 n=28 v=112
7824 On ch=6 n=28 v=0
7856 On ch=6 n=32 v=112
7944 On ch=6 n=32 v=0
7968 On ch=6 n=35 v=112
8080 On ch=6 n=35 v=0
8144 On ch=6 n=32 v=112
8216 On ch=6 n=32 v=0
8256 On ch=6 n=35 v=112
8432 On ch=6 n=35 v=0
8432 Meta TrkEnd
TrkEnd
MTrk
0 PrCh ch=7 p=56
0 Par ch=7 c=7 v=111
0 Par ch=7 c=1 v=64
0 Par ch=7 c=91 v=0
1728 On ch=7 n=81 v=127
1809 On ch=7 n=81 v=0
1825 On ch=7 n=83 v=127
1975 On ch=7 n=83 v=0
2008 On ch=7 n=81 v=127
2096 On ch=7 n=81 v=0
2104 On ch=7 n=83 v=127
2257 On ch=7 n=83 v=0
2297 On ch=7 n=86 v=127
2489 On ch=7 n=83 v=127
2489 On ch=7 n=86 v=0
2576 On ch=7 n=86 v=127
2593 On ch=7 n=83 v=0
2761 On ch=7 n=86 v=0
2769 On ch=7 n=83 v=127
2849 On ch=7 n=86 v=127
2849 On ch=7 n=83 v=0
3001 On ch=7 n=86 v=0
3041 On ch=7 n=88 v=127
3233 On ch=7 n=86 v=127
3233 On ch=7 n=88 v=0
3329 On ch=7 n=88 v=127
3329 On ch=7 n=86 v=0
3513 On ch=7 n=86 v=127
3513 On ch=7 n=88 v=0
3592 On ch=7 n=88 v=127
3607 On ch=7 n=86 v=0
3745 On ch=7 n=88 v=0
3784 On ch=7 n=86 v=127
3968 On ch=7 n=86 v=0
3977 On ch=7 n=84 v=127
4063 On ch=7 n=84 v=0
4081 On ch=7 n=86 v=127
4265 On ch=7 n=84 v=127
4265 On ch=7 n=86 v=0
4327 On ch=7 n=84 v=0
4337 On ch=7 n=86 v=127
4519 On ch=7 n=86 v=0
4537 On ch=7 n=83 v=127
4713 On ch=7 n=86 v=127
4713 On ch=7 n=83 v=0
4840 On ch=7 n=83 v=127
4841 On ch=7 n=86 v=0
5009 On ch=7 n=83 v=0
5017 On ch=7 n=86 v=127
5129 On ch=7 n=83 v=127
5129 On ch=7 n=86 v=0
5271 On ch=7 n=83 v=0
5305 On ch=7 n=81 v=127
5455 On ch=7 n=81 v=0
5480 On ch=7 n=83 v=127
5585 On ch=7 n=81 v=127
5600 On ch=7 n=83 v=0
5761 On ch=7 n=81 v=0
5768 On ch=7 n=83 v=127
5857 On ch=7 n=81 v=127
5864 On ch=7 n=83 v=0
6031 On ch=7 n=81 v=0
6048 On ch=7 n=79 v=127
6249 On ch=7 n=81 v=127
6249 On ch=7 n=79 v=0
6345 On ch=7 n=79 v=127
6345 On ch=7 n=81 v=0
6529 On ch=7 n=79 v=0
6544 On ch=7 n=81 v=127
6641 On ch=7 n=79 v=127
6641 On ch=7 n=81 v=0
6769 On ch=7 n=79 v=0
6801 On ch=7 n=77 v=127
6991 On ch=7 n=77 v=0
6992 On ch=7 n=79 v=127
7120 On ch=7 n=77 v=127
7136 On ch=7 n=79 v=0
7280 On ch=7 n=77 v=0
7305 On ch=7 n=79 v=127
7393 On ch=7 n=77 v=127
7393 On ch=7 n=79 v=0
7553 On ch=7 n=77 v=0
7568 On ch=7 n=76 v=127
8176 On ch=7 n=76 v=0
8209 On ch=7 n=76 v=127
8263 On ch=7 n=76 v=0
8297 On ch=7 n=76 v=127
8895 On ch=7 n=76 v=0
8895 Meta TrkEnd
TrkEnd
MTrk
0 Meta TrkName "Melody"
0 PrCh ch=8 p=74
0 Par ch=8 c=7 v=111
0 Par ch=8 c=1 v=0
0 Par ch=8 c=91 v=0
1539 On ch=8 n=67 v=127
1689 On ch=8 n=67 v=0
1731 On ch=8 n=69 v=127
1791 On ch=8 n=69 v=0
1856 On ch=8 n=74 v=127
1977 On ch=8 n=74 v=0
2016 On ch=8 n=79 v=127
2096 On ch=8 n=79 v=0
2113 On ch=8 n=81 v=127
2233 On ch=8 n=81 v=0
2304 On ch=8 n=83 v=127
2449 On ch=8 n=83 v=0
2496 On ch=8 n=81 v=127
2585 On ch=8 n=81 v=0
2592 On ch=8 n=79 v=127
2737 On ch=8 n=79 v=0
2769 On ch=8 n=81 v=127
2873 On ch=8 n=81 v=0
2880 On ch=8 n=79 v=127
2992 On ch=8 n=79 v=0
3056 On ch=8 n=78 v=127
3200 On ch=8 n=78 v=0
3224 On ch=8 n=79 v=127
3329 On ch=8 n=79 v=0
3344 On ch=8 n=78 v=127
3496 On ch=8 n=78 v=0
3537 On ch=8 n=76 v=127
3609 On ch=8 n=76 v=0
3624 On ch=8 n=74 v=127
3769 On ch=8 n=74 v=0
3809 On ch=8 n=76 v=127
3999 On ch=8 n=76 v=0
4000 On ch=8 n=74 v=127
4049 On ch=8 n=74 v=0
4107 On ch=8 n=73 v=127
4273 On ch=8 n=73 v=0
4305 On ch=8 n=71 v=127
4369 On ch=8 n=71 v=0
4392 On ch=8 n=73 v=127
4448 On ch=8 n=73 v=0
4464 On ch=8 n=69 v=127
4595 On ch=8 n=69 v=0
4616 On ch=8 n=71 v=127
4816 On ch=8 n=71 v=0
4841 On ch=8 n=69 v=127
4903 On ch=8 n=69 v=0
4921 On ch=8 n=67 v=127
5023 On ch=8 n=67 v=0
5040 On ch=8 n=69 v=127
5168 On ch=8 n=69 v=0
5184 On ch=8 n=67 v=127
5312 On ch=8 n=67 v=0
5328 On ch=8 n=66 v=127
5440 On ch=8 n=66 v=0
5472 On ch=8 n=67 v=127
5536 On ch=8 n=67 v=0
5552 On ch=8 n=69 v=127
5624 On ch=8 n=69 v=0
5632 On ch=8 n=67 v=127
5721 On ch=8 n=67 v=0
5763 On ch=8 n=66 v=127
5937 On ch=8 n=66 v=0
5993 On ch=8 n=67 v=127
6088 On ch=8 n=69 v=127
6103 On ch=8 n=67 v=0
6257 On ch=8 n=69 v=0
6272 On ch=8 n=67 v=127
6425 On ch=8 n=67 v=0
6473 On ch=8 n=66 v=127
6577 On ch=8 n=66 v=0
6585 On ch=8 n=64 v=127
6703 On ch=8 n=64 v=0
6737 On ch=8 n=66 v=127
6824 On ch=8 n=64 v=127
6839 On ch=8 n=66 v=0
6896 On ch=8 n=64 v=0
6912 On ch=8 n=62 v=127
7064 On ch=8 n=62 v=0
7152 On ch=8 n=64 v=127
7224 On ch=8 n=64 v=0
7248 On ch=8 n=67 v=127
7392 On ch=8 n=67 v=0
7440 On ch=8 n=69 v=127
7504 On ch=8 n=69 v=0
7536 On ch=8 n=72 v=127
7656 On ch=8 n=72 v=0
7712 On ch=8 n=71 v=127
8416 On ch=8 n=71 v=0
8416 Meta TrkEnd
TrkEnd
MTrk
0 PrCh ch=9 p=1
0 Par ch=9 c=7 v=111
0 Par ch=9 c=91 v=0
1721 On ch=9 n=67 v=127
1791 On ch=9 n=67 v=0
1825 On ch=9 n=67 v=127
1935 On ch=9 n=67 v=0
1985 On ch=9 n=67 v=127
2041 On ch=9 n=67 v=0
2097 On ch=9 n=67 v=127
2225 On ch=9 n=67 v=0
2281 On ch=9 n=69 v=127
2417 On ch=9 n=69 v=0
2456 On ch=9 n=69 v=127
2521 On ch=9 n=69 v=0
2569 On ch=9 n=69 v=127
2705 On ch=9 n=69 v=0
2752 On ch=9 n=69 v=127
2793 On ch=9 n=69 v=0
2841 On ch=9 n=69 v=127
2977 On ch=9 n=69 v=0
3041 On ch=9 n=62 v=127
3159 On ch=9 n=62 v=0
3217 On ch=9 n=62 v=127
3265 On ch=9 n=62 v=0
3321 On ch=9 n=62 v=127
3457 On ch=9 n=62 v=0
3505 On ch=9 n=62 v=127
3569 On ch=9 n=62 v=0
3608 On ch=9 n=62 v=127
3737 On ch=9 n=62 v=0
3800 On ch=9 n=64 v=127
3931 On ch=9 n=64 v=0
3977 On ch=9 n=64 v=127
4033 On ch=9 n=64 v=0
4081 On ch=9 n=64 v=127
4225 On ch=9 n=64 v=0
4272 On ch=9 n=64 v=127
4313 On ch=9 n=64 v=0
4369 On ch=9 n=64 v=127
4457 On ch=9 n=64 v=0
4537 On ch=9 n=57 v=127
4544 On ch=9 n=59 v=127
4569 On ch=9 n=59 v=0
4689 On ch=9 n=57 v=0
4736 On ch=9 n=57 v=127
4793 On ch=9 n=57 v=0
4825 On ch=9 n=57 v=127
4993 On ch=9 n=57 v=0
5040 On ch=9 n=57 v=127
5104 On ch=9 n=57 v=0
5137 On ch=9 n=57 v=127
5281 On ch=9 n=57 v=0
5320 On ch=9 n=55 v=127
6073 On ch=9 n=55 v=0
6104 On ch=9 n=52 v=127
6785 On ch=9 n=52 v=0
6808 On ch=9 n=50 v=127
7553 On ch=9 n=50 v=0
7593 On ch=9 n=52 v=127
8847 On ch=9 n=52 v=0
8847 Meta TrkEnd
TrkEnd
MTrk
0 Meta TrkName "All Percussion"
0 PrCh ch=10 p=0
0 Par ch=10 c=7 v=111
1539 On ch=10 n=36 v=64
1539 On ch=10 n=37 v=64
1539 On ch=10 n=49 v=64
1563 On ch=10 n=49 v=0
1563 On ch=10 n=37 v=0
1563 On ch=10 n=36 v=0
1584 On ch=10 n=44 v=64
1608 On ch=10 n=44 v=0
1648 On ch=10 n=56 v=64
1672 On ch=10 n=56 v=0
1680 On ch=10 n=59 v=64
1704 On ch=10 n=59 v=0
1729 On ch=10 n=40 v=64
1744 On ch=10 n=56 v=64
1753 On ch=10 n=40 v=0
1768 On ch=10 n=56 v=0
1776 On ch=10 n=59 v=64
1800 On ch=10 n=59 v=0
1824 On ch=10 n=40 v=64
1840 On ch=10 n=56 v=64
1848 On ch=10 n=40 v=0
1864 On ch=10 n=56 v=0
1867 On ch=10 n=59 v=64
1891 On ch=10 n=59 v=0
1931 On ch=10 n=37 v=64
1955 On ch=10 n=37 v=0
1968 On ch=10 n=44 v=64
1992 On ch=10 n=44 v=0
2016 On ch=10 n=40 v=64
2032 On ch=10 n=56 v=64
2040 On ch=10 n=40 v=0
2056 On ch=10 n=56 v=0
2065 On ch=10 n=59 v=64
2089 On ch=10 n=59 v=0
2113 On ch=10 n=40 v=64
2128 On ch=10 n=56 v=64
2137 On ch=10 n=40 v=0
2152 On ch=10 n=56 v=0
2160 On ch=10 n=59 v=64
2184 On ch=10 n=59 v=0
2208 On ch=10 n=40 v=64
2224 On ch=10 n=56 v=64
2232 On ch=10 n=40 v=0
2248 On ch=10 n=56 v=0
2257 On ch=10 n=59 v=64
2281 On ch=10 n=59 v=0
2307 On ch=10 n=49 v=64
2312 On ch=10 n=36 v=64
2313 On ch=10 n=37 v=64
2331 On ch=10 n=49 v=0
2336 On ch=10 n=36 v=0
2337 On ch=10 n=37 v=0
2352 On ch=10 n=44 v=64
2376 On ch=10 n=44 v=0
2416 On ch=10 n=56 v=64
2440 On ch=10 n=56 v=0
2448 On ch=10 n=59 v=64
2472 On ch=10 n=59 v=0
2496 On ch=10 n=40 v=64
2512 On ch=10 n=56 v=64
2520 On ch=10 n=40 v=0
2536 On ch=10 n=56 v=0
2539 On ch=10 n=59 v=64
2563 On ch=10 n=59 v=0
2587 On ch=10 n=40 v=64
2608 On ch=10 n=56 v=64
2611 On ch=10 n=40 v=0
2632 On ch=10 n=56 v=0
2640 On ch=10 n=59 v=64
2664 On ch=10 n=59 v=0
2697 On ch=10 n=37 v=64
2721 On ch=10 n=37 v=0
2736 On ch=10 n=44 v=64
2760 On ch=10 n=44 v=0
2784 On ch=10 n=40 v=64
2795 On ch=10 n=56 v=64
2808 On ch=10 n=40 v=0
2819 On ch=10 n=56 v=0
2832 On ch=10 n=59 v=64
2856 On ch=10 n=59 v=0
2880 On ch=10 n=40 v=64
2896 On ch=10 n=56 v=64
2904 On ch=10 n=40 v=0
2920 On ch=10 n=56 v=0
2928 On ch=10 n=59 v=64
2952 On ch=10 n=59 v=0
2976 On ch=10 n=40 v=64
2992 On ch=10 n=56 v=64
3000 On ch=10 n=40 v=0
3016 On ch=10 n=56 v=0
3019 On ch=10 n=59 v=64
3043 On ch=10 n=59 v=0
3075 On ch=10 n=37 v=64
3080 On ch=10 n=36 v=64
3083 On ch=10 n=49 v=64
3099 On ch=10 n=37 v=0
3104 On ch=10 n=36 v=0
3107 On ch=10 n=49 v=0
3120 On ch=10 n=44 v=64
3144 On ch=10 n=44 v=0
3184 On ch=10 n=56 v=64
3208 On ch=10 n=56 v=0
3211 On ch=10 n=59 v=64
3235 On ch=10 n=59 v=0
3265 On ch=10 n=40 v=64
3280 On ch=10 n=56 v=64
3289 On ch=10 n=40 v=0
3304 On ch=10 n=56 v=0
3312 On ch=10 n=59 v=64
3336 On ch=10 n=59 v=0
3353 On ch=10 n=40 v=64
3376 On ch=10 n=56 v=64
3377 On ch=10 n=40 v=0
3400 On ch=10 n=56 v=0
3408 On ch=10 n=59 v=64
3432 On ch=10 n=59 v=0
3464 On ch=10 n=37 v=64
3488 On ch=10 n=37 v=0
3504 On ch=10 n=44 v=64
3528 On ch=10 n=44 v=0
3553 On ch=10 n=40 v=64
3571 On ch=10 n=56 v=64
3577 On ch=10 n=40 v=0
3595 On ch=10 n=56 v=0
3600 On ch=10 n=59 v=64
3624 On ch=10 n=59 v=0
3648 On ch=10 n=40 v=64
3664 On ch=10 n=56 v=64
3672 On ch=10 n=40 v=0
3688 On ch=10 n=56 v=0
3696 On ch=10 n=59 v=64
3720 On ch=10 n=59 v=0
3745 On ch=10 n=40 v=64
3755 On ch=10 n=56 v=64
3769 On ch=10 n=40 v=0
3779 On ch=10 n=56 v=0
3792 On ch=10 n=59 v=64
3816 On ch=10 n=59 v=0
3843 On ch=10 n=49 v=64
3851 On ch=10 n=36 v=64
3851 On ch=10 n=37 v=64
3867 On ch=10 n=49 v=0
3875 On ch=10 n=37 v=0
3875 On ch=10 n=36 v=0
3888 On ch=10 n=44 v=64
3912 On ch=10 n=44 v=0
3952 On ch=10 n=56 v=64
3976 On ch=10 n=56 v=0
3984 On ch=10 n=59 v=64
4008 On ch=10 n=59 v=0
4032 On ch=10 n=49 v=64
4032 On ch=10 n=40 v=64
4048 On ch=10 n=56 v=64
4056 On ch=10 n=40 v=0
4056 On ch=10 n=49 v=0
4072 On ch=10 n=56 v=0
4080 On ch=10 n=59 v=64
4104 On ch=10 n=59 v=0
4128 On ch=10 n=40 v=64
4144 On ch=10 n=56 v=64
4152 On ch=10 n=40 v=0
4168 On ch=10 n=56 v=0
4176 On ch=10 n=59 v=64
4200 On ch=10 n=59 v=0
4232 On ch=10 n=37 v=64
4256 On ch=10 n=37 v=0
4272 On ch=10 n=44 v=64
4296 On ch=10 n=44 v=0
4313 On ch=10 n=49 v=64
4320 On ch=10 n=40 v=64
4336 On ch=10 n=56 v=64
4337 On ch=10 n=49 v=0
4344 On ch=10 n=40 v=0
4360 On ch=10 n=56 v=0
4368 On ch=10 n=59 v=64
4392 On ch=10 n=59 v=0
4409 On ch=10 n=49 v=64
4416 On ch=10 n=40 v=64
4432 On ch=10 n=56 v=64
4433 On ch=10 n=49 v=0
4440 On ch=10 n=40 v=0
4456 On ch=10 n=56 v=0
4464 On ch=10 n=59 v=64
4488 On ch=10 n=59 v=0
4512 On ch=10 n=40 v=64
4523 On ch=10 n=56 v=64
4536 On ch=10 n=40 v=0
4547 On ch=10 n=56 v=0
4560 On ch=10 n=59 v=64
4584 On ch=10 n=59 v=0
4611 On ch=10 n=49 v=64
4616 On ch=10 n=37 v=64
4619 On ch=10 n=36 v=64
4635 On ch=10 n=49 v=0
4640 On ch=10 n=37 v=0
4643 On ch=10 n=36 v=0
4656 On ch=10 n=44 v=64
4680 On ch=10 n=44 v=0
4720 On ch=10 n=56 v=64
4744 On ch=10 n=56 v=0
4752 On ch=10 n=59 v=64
4776 On ch=10 n=59 v=0
4801 On ch=10 n=40 v=64
4816 On ch=10 n=56 v=64
4825 On ch=10 n=40 v=0
4840 On ch=10 n=56 v=0
4848 On ch=10 n=59 v=64
4872 On ch=10 n=59 v=0
4896 On ch=10 n=40 v=64
4912 On ch=10 n=56 v=64
4920 On ch=10 n=40 v=0
4936 On ch=10 n=56 v=0
4939 On ch=10 n=59 v=64
4963 On ch=10 n=59 v=0
5003 On ch=10 n=37 v=64
5027 On ch=10 n=37 v=0
5040 On ch=10 n=44 v=64
5064 On ch=10 n=44 v=0
5088 On ch=10 n=40 v=64
5104 On ch=10 n=56 v=64
5112 On ch=10 n=40 v=0
5128 On ch=10 n=56 v=0
5137 On ch=10 n=59 v=64
5161 On ch=10 n=59 v=0
5185 On ch=10 n=40 v=64
5200 On ch=10 n=56 v=64
5209 On ch=10 n=40 v=0
5224 On ch=10 n=56 v=0
5232 On ch=10 n=59 v=64
5256 On ch=10 n=59 v=0
5280 On ch=10 n=40 v=64
5296 On ch=10 n=56 v=64
5304 On ch=10 n=40 v=0
5320 On ch=10 n=56 v=0
5329 On ch=10 n=59 v=64
5353 On ch=10 n=59 v=0
5379 On ch=10 n=49 v=64
5384 On ch=10 n=36 v=64
5385 On ch=10 n=37 v=64
5403 On ch=10 n=49 v=0
5408 On ch=10 n=36 v=0
5409 On ch=10 n=37 v=0
5424 On ch=10 n=44 v=64
5448 On ch=10 n=44 v=0
5488 On ch=10 n=56 v=64
5512 On ch=10 n=56 v=0
5520 On ch=10 n=59 v=64
5544 On ch=10 n=59 v=0
5568 On ch=10 n=40 v=64
5584 On ch=10 n=56 v=64
5592 On ch=10 n=40 v=0
5608 On ch=10 n=56 v=0
5611 On ch=10 n=59 v=64
5635 On ch=10 n=59 v=0
5659 On ch=10 n=40 v=64
5680 On ch=10 n=56 v=64
5683 On ch=10 n=40 v=0
5704 On ch=10 n=56 v=0
5712 On ch=10 n=59 v=64
5736 On ch=10 n=59 v=0
5769 On ch=10 n=37 v=64
5793 On ch=10 n=37 v=0
5808 On ch=10 n=44 v=64
5832 On ch=10 n=44 v=0
5856 On ch=10 n=40 v=64
5867 On ch=10 n=56 v=64
5880 On ch=10 n=40 v=0
5891 On ch=10 n=56 v=0
5904 On ch=10 n=59 v=64
5928 On ch=10 n=59 v=0
5952 On ch=10 n=40 v=64
5968 On ch=10 n=56 v=64
5976 On ch=10 n=40 v=0
5992 On ch=10 n=56 v=0
6000 On ch=10 n=59 v=64
6024 On ch=10 n=59 v=0
6048 On ch=10 n=40 v=64
6064 On ch=10 n=56 v=64
6072 On ch=10 n=40 v=0
6088 On ch=10 n=56 v=0
6091 On ch=10 n=59 v=64
6115 On ch=10 n=59 v=0
6147 On ch=10 n=37 v=64
6152 On ch=10 n=36 v=64
6155 On ch=10 n=49 v=64
6171 On ch=10 n=37 v=0
6176 On ch=10 n=36 v=0
6179 On ch=10 n=49 v=0
6192 On ch=10 n=44 v=64
6216 On ch=10 n=44 v=0
6256 On ch=10 n=56 v=64
6280 On ch=10 n=56 v=0
6283 On ch=10 n=59 v=64
6307 On ch=10 n=59 v=0
6337 On ch=10 n=40 v=64
6352 On ch=10 n=56 v=64
6361 On ch=10 n=40 v=0
6376 On ch=10 n=56 v=0
6384 On ch=10 n=59 v=64
6408 On ch=10 n=59 v=0
6425 On ch=10 n=40 v=64
6448 On ch=10 n=56 v=64
6449 On ch=10 n=40 v=0
6472 On ch=10 n=56 v=0
6480 On ch=10 n=59 v=64
6504 On ch=10 n=59 v=0
6536 On ch=10 n=37 v=64
6560 On ch=10 n=37 v=0
6576 On ch=10 n=44 v=64
6600 On ch=10 n=44 v=0
6625 On ch=10 n=40 v=64
6643 On ch=10 n=56 v=64
6649 On ch=10 n=40 v=0
6667 On ch=10 n=56 v=0
6672 On ch=10 n=59 v=64
6696 On ch=10 n=59 v=0
6720 On ch=10 n=40 v=64
6736 On ch=10 n=56 v=64
6744 On ch=10 n=40 v=0
6760 On ch=10 n=56 v=0
6768 On ch=10 n=59 v=64
6792 On ch=10 n=59 v=0
6817 On ch=10 n=40 v=64
6827 On ch=10 n=56 v=64
6841 On ch=10 n=40 v=0
6851 On ch=10 n=56 v=0
6864 On ch=10 n=59 v=64
6888 On ch=10 n=59 v=0
6915 On ch=10 n=49 v=64
6923 On ch=10 n=36 v=64
6923 On ch=10 n=37 v=64
6939 On ch=10 n=49 v=0
6947 On ch=10 n=37 v=0
6947 On ch=10 n=36 v=0
6960 On ch=10 n=44 v=64
6984 On ch=10 n=44 v=0
7024 On ch=10 n=56 v=64
7048 On ch=10 n=56 v=0
7056 On ch=10 n=59 v=64
7080 On ch=10 n=59 v=0
7104 On ch=10 n=49 v=64
7104 On ch=10 n=40 v=64
7120 On ch=10 n=56 v=64
7128 On ch=10 n=40 v=0
7128 On ch=10 n=49 v=0
7144 On ch=10 n=56 v=0
7152 On ch=10 n=59 v=64
7176 On ch=10 n=59 v=0
7200 On ch=10 n=40 v=64
7216 On ch=10 n=56 v=64
7224 On ch=10 n=40 v=0
7240 On ch=10 n=56 v=0
7248 On ch=10 n=59 v=64
7272 On ch=10 n=59 v=0
7304 On ch=10 n=37 v=64
7328 On ch=10 n=37 v=0
7344 On ch=10 n=44 v=64
7368 On ch=10 n=44 v=0
7385 On ch=10 n=49 v=64
7392 On ch=10 n=40 v=64
7408 On ch=10 n=56 v=64
7409 On ch=10 n=49 v=0
7416 On ch=10 n=40 v=0
7432 On ch=10 n=56 v=0
7440 On ch=10 n=59 v=64
7464 On ch=10 n=59 v=0
7481 On ch=10 n=49 v=64
7488 On ch=10 n=40 v=64
7504 On ch=10 n=56 v=64
7505 On ch=10 n=49 v=0
7512 On ch=10 n=40 v=0
7528 On ch=10 n=56 v=0
7536 On ch=10 n=59 v=64
7560 On ch=10 n=59 v=0
7584 On ch=10 n=40 v=64
7595 On ch=10 n=56 v=64
7608 On ch=10 n=40 v=0
7619 On ch=10 n=56 v=0
7632 On ch=10 n=59 v=64
7656 On ch=10 n=59 v=0
7683 On ch=10 n=40 v=64
7707 On ch=10 n=40 v=0
7731 On ch=10 n=54 v=64
7732 On ch=10 n=49 v=64
7737 On ch=10 n=55 v=64
7755 On ch=10 n=54 v=0
7756 On ch=10 n=49 v=0
7808 On ch=10 n=54 v=64
7832 On ch=10 n=54 v=0
7859 On ch=10 n=54 v=64
7872 On ch=10 n=40 v=64
7883 On ch=10 n=54 v=0
7896 On ch=10 n=40 v=0
7904 On ch=10 n=54 v=64
7915 On ch=10 n=49 v=64
7928 On ch=10 n=54 v=0
7936 On ch=10 n=54 v=64
7939 On ch=10 n=49 v=0
7960 On ch=10 n=54 v=0
7968 On ch=10 n=40 v=64
7992 On ch=10 n=40 v=0
8016 On ch=10 n=49 v=64
8040 On ch=10 n=54 v=64
8040 On ch=10 n=49 v=0
8064 On ch=10 n=54 v=0
8067 On ch=10 n=40 v=64
8091 On ch=10 n=40 v=0
8259 On ch=10 n=40 v=64
8283 On ch=10 n=40 v=0
8352 On ch=10 n=40 v=64
8376 On ch=10 n=40 v=0
8810 On ch=10 n=55 v=0
8810 Meta TrkEnd
TrkEnd
MTrk
0 Meta TrkName "Deep Bass Clock"
0 Pb ch=11 v=1
0 PrCh ch=11 p=0
1536 On ch=11 n=36 v=64
1606 On ch=11 n=36 v=0
1728 On ch=11 n=36 v=64
1798 On ch=11 n=36 v=0
1920 On ch=11 n=36 v=64
1990 On ch=11 n=36 v=0
2112 On ch=11 n=36 v=64
2182 On ch=11 n=36 v=0
2304 On ch=11 n=36 v=64
2374 On ch=11 n=36 v=0
2496 On ch=11 n=36 v=64
2566 On ch=11 n=36 v=0
2688 On ch=11 n=36 v=64
2758 On ch=11 n=36 v=0
2880 On ch=11 n=36 v=64
2950 On ch=11 n=36 v=0
3072 On ch=11 n=36 v=64
3142 On ch=11 n=36 v=0
3264 On ch=11 n=36 v=64
3334 On ch=11 n=36 v=0
3456 On ch=11 n=36 v=64
3526 On ch=11 n=36 v=0
3648 On ch=11 n=36 v=64
3718 On ch=11 n=36 v=0
3840 On ch=11 n=36 v=64
3910 On ch=11 n=36 v=0
4032 On ch=11 n=36 v=64
4102 On ch=11 n=36 v=0
4224 On ch=11 n=36 v=64
4294 On ch=11 n=36 v=0
4416 On ch=11 n=36 v=64
4486 On ch=11 n=36 v=0
4608 On ch=11 n=36 v=64
4678 On ch=11 n=36 v=0
4800 On ch=11 n=36 v=64
4870 On ch=11 n=36 v=0
4992 On ch=11 n=36 v=64
5062 On ch=11 n=36 v=0
5184 On ch=11 n=36 v=64
5254 On ch=11 n=36 v=0
5376 On ch=11 n=36 v=64
5446 On ch=11 n=36 v=0
5568 On ch=11 n=36 v=64
5638 On ch=11 n=36 v=0
5760 On ch=11 n=36 v=64
5830 On ch=11 n=36 v=0
5952 On ch=11 n=36 v=64
6022 On ch=11 n=36 v=0
6144 On ch=11 n=36 v=64
6214 On ch=11 n=36 v=0
6336 On ch=11 n=36 v=64
6406 On ch=11 n=36 v=0
6528 On ch=11 n=36 v=64
6598 On ch=11 n=36 v=0
6720 On ch=11 n=36 v=64
6790 On ch=11 n=36 v=0
6912 On ch=11 n=36 v=64
6982 On ch=11 n=36 v=0
7104 On ch=11 n=36 v=64
7174 On ch=11 n=36 v=0
7296 On ch=11 n=36 v=64
7366 On ch=11 n=36 v=0
7488 On ch=11 n=36 v=64
7558 On ch=11 n=36 v=0
7680 On ch=11 n=36 v=64
7750 On ch=11 n=36 v=0
7872 On ch=11 n=36 v=64
7942 On ch=11 n=36 v=0
8064 On ch=11 n=36 v=64
8134 On ch=11 n=36 v=0
8256 On ch=11 n=36 v=64
8326 On ch=11 n=36 v=0
8448 On ch=11 n=36 v=64
8518 On ch=11 n=36 v=0
8640 On ch=11 n=36 v=64
8710 On ch=11 n=36 v=0
8832 On ch=11 n=36 v=64
8902 On ch=11 n=36 v=0
9024 On ch=11 n=36 v=64
9094 On ch=11 n=36 v=0
9216 On ch=11 n=36 v=64
9286 On ch=11 n=36 v=0
9408 On ch=11 n=36 v=64
9478 On ch=11 n=36 v=0
9600 On ch=11 n=36 v=64
9670 On ch=11 n=36 v=0
9792 On ch=11 n=36 v=64
9862 On ch=11 n=36 v=0
9984 On ch=11 n=36 v=64
10054 On ch=11 n=36 v=0
10176 On ch=11 n=36 v=64
10246 On ch=11 n=36 v=0
10368 On ch=11 n=36 v=64
10438 On ch=11 n=36 v=0
10560 On ch=11 n=36 v=64
10630 On ch=11 n=36 v=0
10752 On ch=11 n=36 v=64
10822 On ch=11 n=36 v=0
10944 On ch=11 n=36 v=64
11014 On ch=11 n=36 v=0
11136 On ch=11 n=36 v=64
11206 On ch=11 n=36 v=0
11328 On ch=11 n=36 v=64
11398 On ch=11 n=36 v=0
11520 On ch=11 n=36 v=64
11590 On ch=11 n=36 v=0
11712 On ch=11 n=36 v=64
11782 On ch=11 n=36 v=0
11904 On ch=11 n=36 v=64
11974 On ch=11 n=36 v=0
12096 On ch=11 n=36 v=64
12166 On ch=11 n=36 v=0
12288 On ch=11 n=36 v=64
12358 On ch=11 n=36 v=0
12480 On ch=11 n=36 v=64
12550 On ch=11 n=36 v=0
12672 On ch=11 n=36 v=64
12742 On ch=11 n=36 v=0
12864 On ch=11 n=36 v=64
12934 On ch=11 n=36 v=0
13056 On ch=11 n=36 v=64
13126 On ch=11 n=36 v=0
13248 On ch=11 n=36 v=64
13318 On ch=11 n=36 v=0
13440 On ch=11 n=36 v=64
13510 On ch=11 n=36 v=0
13632 On ch=11 n=36 v=64
13702 On ch=11 n=36 v=0
13824 On ch=11 n=36 v=64
13894 On ch=11 n=36 v=0
14016 On ch=11 n=36 v=64
14086 On ch=11 n=36 v=0
14208 On ch=11 n=36 v=64
14278 On ch=11 n=36 v=0
14400 On ch=11 n=36 v=64
14470 On ch=11 n=36 v=0
14592 On ch=11 n=36 v=64
14662 On ch=11 n=36 v=0
14784 On ch=11 n=36 v=64
14854 On ch=11 n=36 v=0
14976 On ch=11 n=36 v=64
15046 On ch=11 n=36 v=0
15168 On ch=11 n=36 v=64
15238 On ch=11 n=36 v=0
15360 On ch=11 n=36 v=64
15430 On ch=11 n=36 v=0
15552 On ch=11 n=36 v=64
15622 On ch=11 n=36 v=0
15744 On ch=11 n=36 v=64
15814 On ch=11 n=36 v=0
15936 On ch=11 n=36 v=64
16006 On ch=11 n=36 v=0
16128 On ch=11 n=36 v=64
16198 On ch=11 n=36 v=0
16320 On ch=11 n=36 v=64
16390 On ch=11 n=36 v=0
16512 On ch=11 n=36 v=64
16582 On ch=11 n=36 v=0
16704 On ch=11 n=36 v=64
16774 On ch=11 n=36 v=0
16896 On ch=11 n=36 v=64
16966 On ch=11 n=36 v=0
17088 On ch=11 n=36 v=64
17158 On ch=11 n=36 v=0
17280 On ch=11 n=36 v=64
17350 On ch=11 n=36 v=0
17472 On ch=11 n=36 v=64
17542 On ch=11 n=36 v=0
17664 On ch=11 n=36 v=64
17734 On ch=11 n=36 v=0
17856 On ch=11 n=36 v=64
17926 On ch=11 n=36 v=0
18048 On ch=11 n=36 v=64
18118 On ch=11 n=36 v=0
18240 On ch=11 n=36 v=64
18310 On ch=11 n=36 v=0
18432 On ch=11 n=36 v=64
18502 On ch=11 n=36 v=0
18624 On ch=11 n=36 v=64
18694 On ch=11 n=36 v=0
18816 On ch=11 n=36 v=64
18886 On ch=11 n=36 v=0
19008 On ch=11 n=36 v=64
19078 On ch=11 n=36 v=0
19200 On ch=11 n=36 v=64
19270 On ch=11 n=36 v=0
19392 On ch=11 n=36 v=64
19462 On ch=11 n=36 v=0
19584 On ch=11 n=36 v=64
19654 On ch=11 n=36 v=0
19776 On ch=11 n=36 v=64
19846 On ch=11 n=36 v=0
19968 On ch=11 n=36 v=64
20038 On ch=11 n=36 v=0
20160 On ch=11 n=36 v=64
20230 On ch=11 n=36 v=0
20352 On ch=11 n=36 v=64
20422 On ch=11 n=36 v=0
20544 On ch=11 n=36 v=64
20614 On ch=11 n=36 v=0
20736 On ch=11 n=36 v=64
20806 On ch=11 n=36 v=0
20928 On ch=11 n=36 v=64
20998 On ch=11 n=36 v=0
21120 On ch=11 n=36 v=64
21190 On ch=11 n=36 v=0
21312 On ch=11 n=36 v=64
21382 On ch=11 n=36 v=0
21504 On ch=11 n=36 v=64
21574 On ch=11 n=36 v=0
21696 On ch=11 n=36 v=64
21766 On ch=11 n=36 v=0
21888 On ch=11 n=36 v=64
21958 On ch=11 n=36 v=0
22080 On ch=11 n=36 v=64
22150 On ch=11 n=36 v=0
22272 On ch=11 n=36 v=64
22342 On ch=11 n=36 v=0
22464 On ch=11 n=36 v=64
22534 On ch=11 n=36 v=0
22656 On ch=11 n=36 v=64
22726 On ch=11 n=36 v=0
22848 On ch=11 n=36 v=64
22918 On ch=11 n=36 v=0
23040 On ch=11 n=36 v=64
23110 On ch=11 n=36 v=0
23232 On ch=11 n=36 v=64
23302 On ch=11 n=36 v=0
23424 On ch=11 n=36 v=64
23494 On ch=11 n=36 v=0
23616 On ch=11 n=36 v=64
23686 On ch=11 n=36 v=0
23808 On ch=11 n=36 v=64
23878 On ch=11 n=36 v=0
24000 On ch=11 n=36 v=64
24070 On ch=11 n=36 v=0
24192 On ch=11 n=36 v=64
24262 On ch=11 n=36 v=0
24384 On ch=11 n=36 v=64
24454 On ch=11 n=36 v=0
24576 On ch=11 n=36 v=64
24646 On ch=11 n=36 v=0
24768 On ch=11 n=36 v=64
24838 On ch=11 n=36 v=0
24960 On ch=11 n=36 v=64
25030 On ch=11 n=36 v=0
25152 On ch=11 n=36 v=64
25222 On ch=11 n=36 v=0
25344 On ch=11 n=36 v=64
25414 On ch=11 n=36 v=0
25536 On ch=11 n=36 v=64
25606 On ch=11 n=36 v=0
25728 On ch=11 n=36 v=64
25798 On ch=11 n=36 v=0
25920 On ch=11 n=36 v=64
25990 On ch=11 n=36 v=0
26112 On ch=11 n=36 v=64
26182 On ch=11 n=36 v=0
26304 On ch=11 n=36 v=64
26374 On ch=11 n=36 v=0
26496 On ch=11 n=36 v=64
26566 On ch=11 n=36 v=0
26688 On ch=11 n=36 v=64
26758 On ch=11 n=36 v=0
26880 On ch=11 n=36 v=64
26950 On ch=11 n=36 v=0
27072 On ch=11 n=36 v=64
27142 On ch=11 n=36 v=0
27264 On ch=11 n=36 v=64
27334 On ch=11 n=36 v=0
27456 On ch=11 n=36 v=64
27526 On ch=11 n=36 v=0
27648 On ch=11 n=36 v=64
27718 On ch=11 n=36 v=0
27840 On ch=11 n=36 v=64
27910 On ch=11 n=36 v=0
28032 On ch=11 n=36 v=64
28102 On ch=11 n=36 v=0
28224 On ch=11 n=36 v=64
28294 On ch=11 n=36 v=0
28416 On ch=11 n=36 v=64
28486 On ch=11 n=36 v=0
28608 On ch=11 n=36 v=64
28678 On ch=11 n=36 v=0
28800 On ch=11 n=36 v=64
28870 On ch=11 n=36 v=0
28992 On ch=11 n=36 v=64
29062 On ch=11 n=36 v=0
29184 On ch=11 n=36 v=64
29254 On ch=11 n=36 v=0
29376 On ch=11 n=36 v=64
29446 On ch=11 n=36 v=0
29568 On ch=11 n=36 v=64
29638 On ch=11 n=36 v=0
29760 On ch=11 n=36 v=64
29830 On ch=11 n=36 v=0
29952 On ch=11 n=36 v=64
30022 On ch=11 n=36 v=0
30144 On ch=11 n=36 v=64
30214 On ch=11 n=36 v=0
30336 On ch=11 n=36 v=64
30406 On ch=11 n=36 v=0
30528 On ch=11 n=36 v=64
30598 On ch=11 n=36 v=0
30720 On ch=11 n=36 v=64
30790 On ch=11 n=36 v=0
30912 On ch=11 n=36 v=64
30982 On ch=11 n=36 v=0
31104 On ch=11 n=36 v=64
31174 On ch=11 n=36 v=0
31296 On ch=11 n=36 v=64
31366 On ch=11 n=36 v=0
31488 On ch=11 n=36 v=64
31558 On ch=11 n=36 v=0
31680 On ch=11 n=36 v=64
31750 On ch=11 n=36 v=0
31872 On ch=11 n=36 v=64
31942 On ch=11 n=36 v=0
32064 On ch=11 n=36 v=64
32134 On ch=11 n=36 v=0
32256 On ch=11 n=36 v=64
32326 On ch=11 n=36 v=0
32448 On ch=11 n=36 v=64
32518 On ch=11 n=36 v=0
32640 On ch=11 n=36 v=64
32710 On ch=11 n=36 v=0
32832 On ch=11 n=36 v=64
32902 On ch=11 n=36 v=0
33024 On ch=11 n=36 v=64
33094 On ch=11 n=36 v=0
33216 On ch=11 n=36 v=64
33286 On ch=11 n=36 v=0
33408 On ch=11 n=36 v=64
33478 On ch=11 n=36 v=0
33600 On ch=11 n=36 v=64
33670 On ch=11 n=36 v=0
33792 On ch=11 n=36 v=64
33862 On ch=11 n=36 v=0
33984 On ch=11 n=36 v=64
34054 On ch=11 n=36 v=0
34176 On ch=11 n=36 v=64
34246 On ch=11 n=36 v=0
34368 On ch=11 n=36 v=64
34438 On ch=11 n=36 v=0
34560 On ch=11 n=36 v=64
34630 On ch=11 n=36 v=0
34752 On ch=11 n=36 v=64
34822 On ch=11 n=36 v=0
34944 On ch=11 n=36 v=64
35014 On ch=11 n=36 v=0
35136 On ch=11 n=36 v=64
35206 On ch=11 n=36 v=0
35328 On ch=11 n=36 v=64
35398 On ch=11 n=36 v=0
35520 On ch=11 n=36 v=64
35590 On ch=11 n=36 v=0
35712 On ch=11 n=36 v=64
35782 On ch=11 n=36 v=0
35904 On ch=11 n=36 v=64
35974 On ch=11 n=36 v=0
36096 On ch=11 n=36 v=64
36166 On ch=11 n=36 v=0
36288 On ch=11 n=36 v=64
36358 On ch=11 n=36 v=0
36480 On ch=11 n=36 v=64
36550 On ch=11 n=36 v=0
36672 On ch=11 n=36 v=64
36742 On ch=11 n=36 v=0
36864 On ch=11 n=36 v=64
36934 On ch=11 n=36 v=0
37056 On ch=11 n=36 v=64
37126 On ch=11 n=36 v=0
37248 On ch=11 n=36 v=64
37318 On ch=11 n=36 v=0
37440 On ch=11 n=36 v=64
37510 On ch=11 n=36 v=0
37632 On ch=11 n=36 v=64
37702 On ch=11 n=36 v=0
37824 On ch=11 n=36 v=64
37894 On ch=11 n=36 v=0
38016 On ch=11 n=36 v=64
38086 On ch=11 n=36 v=0
38208 On ch=11 n=36 v=64
38278 On ch=11 n=36 v=0
38400 On ch=11 n=36 v=64
38470 On ch=11 n=36 v=0
38592 On ch=11 n=36 v=64
38662 On ch=11 n=36 v=0
38784 On ch=11 n=36 v=64
38854 On ch=11 n=36 v=0
38976 On ch=11 n=36 v=64
39046 On ch=11 n=36 v=0
39168 On ch=11 n=36 v=64
39238 On ch=11 n=36 v=0
39360 On ch=11 n=36 v=64
39430 On ch=11 n=36 v=0
39552 On ch=11 n=36 v=64
39622 On ch=11 n=36 v=0
39744 On ch=11 n=36 v=64
39814 On ch=11 n=36 v=0
39936 On ch=11 n=36 v=64
40006 On ch=11 n=36 v=0
40128 On ch=11 n=36 v=64
40198 On ch=11 n=36 v=0
40320 On ch=11 n=36 v=64
40390 On ch=11 n=36 v=0
40512 On ch=11 n=36 v=64
40582 On ch=11 n=36 v=0
40704 On ch=11 n=36 v=64
40774 On ch=11 n=36 v=0
40896 On ch=11 n=36 v=64
40966 On ch=11 n=36 v=0
41088 On ch=11 n=36 v=64
41158 On ch=11 n=36 v=0
41280 On ch=11 n=36 v=64
41350 On ch=11 n=36 v=0
41472 On ch=11 n=36 v=64
41542 On ch=11 n=36 v=0
41664 On ch=11 n=36 v=64
41734 On ch=11 n=36 v=0
41856 On ch=11 n=36 v=64
41926 On ch=11 n=36 v=0
42048 On ch=11 n=36 v=64
42118 On ch=11 n=36 v=0
42240 On ch=11 n=36 v=64
42310 On ch=11 n=36 v=0
42432 On ch=11 n=36 v=64
42502 On ch=11 n=36 v=0
42624 On ch=11 n=36 v=64
42694 On ch=11 n=36 v=0
42816 On ch=11 n=36 v=64
42886 On ch=11 n=36 v=0
43008 On ch=11 n=36 v=64
43078 On ch=11 n=36 v=0
43200 On ch=11 n=36 v=64
43270 On ch=11 n=36 v=0
43392 On ch=11 n=36 v=64
43462 On ch=11 n=36 v=0
43584 On ch=11 n=36 v=64
43654 On ch=11 n=36 v=0
43776 On ch=11 n=36 v=64
43846 On ch=11 n=36 v=0
43968 On ch=11 n=36 v=64
44038 On ch=11 n=36 v=0
44160 On ch=11 n=36 v=64
44230 On ch=11 n=36 v=0
44352 On ch=11 n=36 v=64
44422 On ch=11 n=36 v=0
44544 On ch=11 n=36 v=64
44614 On ch=11 n=36 v=0
44736 On ch=11 n=36 v=64
44806 On ch=11 n=36 v=0
44928 On ch=11 n=36 v=64
44998 On ch=11 n=36 v=0
45120 On ch=11 n=36 v=64
45190 On ch=11 n=36 v=0
45312 On ch=11 n=36 v=64
45382 On ch=11 n=36 v=0
45504 On ch=11 n=36 v=64
45574 On ch=11 n=36 v=0
45696 On ch=11 n=36 v=64
45766 On ch=11 n=36 v=0
45888 On ch=11 n=36 v=64
45958 On ch=11 n=36 v=0
46080 On ch=11 n=36 v=64
46150 On ch=11 n=36 v=0
46272 On ch=11 n=36 v=64
46342 On ch=11 n=36 v=0
46464 On ch=11 n=36 v=64
46534 On ch=11 n=36 v=0
46656 On ch=11 n=36 v=64
46726 On ch=11 n=36 v=0
46848 On ch=11 n=36 v=64
46918 On ch=11 n=36 v=0
47040 On ch=11 n=36 v=64
47110 On ch=11 n=36 v=0
47232 On ch=11 n=36 v=64
47302 On ch=11 n=36 v=0
47424 On ch=11 n=36 v=64
47494 On ch=11 n=36 v=0
47616 On ch=11 n=36 v=64
47686 On ch=11 n=36 v=0
47808 On ch=11 n=36 v=64
47878 On ch=11 n=36 v=0
48000 On ch=11 n=36 v=64
48070 On ch=11 n=36 v=0
48192 On ch=11 n=36 v=64
48262 On ch=11 n=36 v=0
48384 On ch=11 n=36 v=64
48454 On ch=11 n=36 v=0
48576 On ch=11 n=36 v=64
48646 On ch=11 n=36 v=0
48768 On ch=11 n=36 v=64
48838 On ch=11 n=36 v=0
48960 On ch=11 n=36 v=64
49030 On ch=11 n=36 v=0
49030 Meta TrkEnd
TrkEnd
MTrk
0 Meta TrkName "Gong"
0 PrCh ch=11 p=0
0 Par ch=11 c=7 v=111
0 Pb ch=11 v=1
1536 On ch=11 n=60 v=127
1571 On ch=11 n=60 v=0
1580 On ch=11 n=60 v=127
2592 On ch=11 n=60 v=0
2592 Meta TrkEnd
TrkEnd
MTrk
0 Meta TrkName "Syncop Clock"
1536 On ch=11 n=44 v=127
1572 On ch=11 n=44 v=0
1632 On ch=11 n=44 v=127
1675 On ch=11 n=44 v=0
1728 On ch=11 n=44 v=127
1755 On ch=11 n=44 v=0
1824 On ch=11 n=44 v=127
1852 On ch=11 n=44 v=0
1920 On ch=11 n=44 v=127
1956 On ch=11 n=44 v=0
2016 On ch=11 n=44 v=127
2043 On ch=11 n=44 v=0
2064 On ch=11 n=44 v=127
2092 On ch=11 n=44 v=0
2112 On ch=11 n=44 v=127
2140 On ch=11 n=44 v=0
2208 On ch=11 n=44 v=127
2230 On ch=11 n=44 v=0
2304 On ch=11 n=44 v=127
2340 On ch=11 n=44 v=0
2400 On ch=11 n=44 v=127
2443 On ch=11 n=44 v=0
2496 On ch=11 n=44 v=127
2523 On ch=11 n=44 v=0
2592 On ch=11 n=44 v=127
2620 On ch=11 n=44 v=0
2688 On ch=11 n=44 v=127
2724 On ch=11 n=44 v=0
2784 On ch=11 n=44 v=127
2811 On ch=11 n=44 v=0
2832 On ch=11 n=44 v=127
2860 On ch=11 n=44 v=0
2880 On ch=11 n=44 v=127
2908 On ch=11 n=44 v=0
2976 On ch=11 n=44 v=127
2998 On ch=11 n=44 v=0
3072 On ch=11 n=44 v=127
3108 On ch=11 n=44 v=0
3168 On ch=11 n=44 v=127
3211 On ch=11 n=44 v=0
3264 On ch=11 n=44 v=127
3291 On ch=11 n=44 v=0
3360 On ch=11 n=44 v=127
3388 On ch=11 n=44 v=0
3456 On ch=11 n=44 v=127
3492 On ch=11 n=44 v=0
3552 On ch=11 n=44 v=127
3579 On ch=11 n=44 v=0
3600 On ch=11 n=44 v=127
3628 On ch=11 n=44 v=0
3648 On ch=11 n=44 v=127
3676 On ch=11 n=44 v=0
3744 On ch=11 n=44 v=127
3766 On ch=11 n=44 v=0
3840 On ch=11 n=44 v=127
3876 On ch=11 n=44 v=0
3936 On ch=11 n=44 v=127
3979 On ch=11 n=44 v=0
4032 On ch=11 n=44 v=127
4059 On ch=11 n=44 v=0
4128 On ch=11 n=44 v=127
4156 On ch=11 n=44 v=0
4224 On ch=11 n=44 v=127
4260 On ch=11 n=44 v=0
4320 On ch=11 n=44 v=127
4347 On ch=11 n=44 v=0
4368 On ch=11 n=44 v=127
4396 On ch=11 n=44 v=0
4416 On ch=11 n=44 v=127
4444 On ch=11 n=44 v=0
4512 On ch=11 n=44 v=127
4534 On ch=11 n=44 v=0
4608 On ch=11 n=44 v=127
4644 On ch=11 n=44 v=0
4704 On ch=11 n=44 v=127
4747 On ch=11 n=44 v=0
4800 On ch=11 n=44 v=127
4827 On ch=11 n=44 v=0
4896 On ch=11 n=44 v=127
4924 On ch=11 n=44 v=0
4992 On ch=11 n=44 v=127
5028 On ch=11 n=44 v=0
5088 On ch=11 n=44 v=127
5115 On ch=11 n=44 v=0
5136 On ch=11 n=44 v=127
5164 On ch=11 n=44 v=0
5184 On ch=11 n=44 v=127
5212 On ch=11 n=44 v=0
5280 On ch=11 n=44 v=127
5302 On ch=11 n=44 v=0
5376 On ch=11 n=44 v=127
5412 On ch=11 n=44 v=0
5472 On ch=11 n=44 v=127
5515 On ch=11 n=44 v=0
5568 On ch=11 n=44 v=127
5595 On ch=11 n=44 v=0
5664 On ch=11 n=44 v=127
5692 On ch=11 n=44 v=0
5760 On ch=11 n=44 v=127
5796 On ch=11 n=44 v=0
5856 On ch=11 n=44 v=127
5883 On ch=11 n=44 v=0
5904 On ch=11 n=44 v=127
5932 On ch=11 n=44 v=0
5952 On ch=11 n=44 v=127
5980 On ch=11 n=44 v=0
6048 On ch=11 n=44 v=127
6070 On ch=11 n=44 v=0
6144 On ch=11 n=44 v=127
6180 On ch=11 n=44 v=0
6240 On ch=11 n=44 v=127
6283 On ch=11 n=44 v=0
6336 On ch=11 n=44 v=127
6363 On ch=11 n=44 v=0
6432 On ch=11 n=44 v=127
6460 On ch=11 n=44 v=0
6528 On ch=11 n=44 v=127
6564 On ch=11 n=44 v=0
6624 On ch=11 n=44 v=127
6651 On ch=11 n=44 v=0
6672 On ch=11 n=44 v=127
6700 On ch=11 n=44 v=0
6720 On ch=11 n=44 v=127
6748 On ch=11 n=44 v=0
6816 On ch=11 n=44 v=127
6838 On ch=11 n=44 v=0
6912 On ch=11 n=44 v=127
6948 On ch=11 n=44 v=0
7008 On ch=11 n=44 v=127
7051 On ch=11 n=44 v=0
7104 On ch=11 n=44 v=127
7131 On ch=11 n=44 v=0
7200 On ch=11 n=44 v=127
7228 On ch=11 n=44 v=0
7296 On ch=11 n=44 v=127
7332 On ch=11 n=44 v=0
7392 On ch=11 n=44 v=127
7419 On ch=11 n=44 v=0
7440 On ch=11 n=44 v=127
7468 On ch=11 n=44 v=0
7488 On ch=11 n=44 v=127
7516 On ch=11 n=44 v=0
7584 On ch=11 n=44 v=127
7606 On ch=11 n=44 v=0
7680 On ch=11 n=44 v=127
7716 On ch=11 n=44 v=0
7776 On ch=11 n=44 v=127
7819 On ch=11 n=44 v=0
7872 On ch=11 n=44 v=127
7899 On ch=11 n=44 v=0
7968 On ch=11 n=44 v=127
7996 On ch=11 n=44 v=0
8064 On ch=11 n=44 v=127
8100 On ch=11 n=44 v=0
8160 On ch=11 n=44 v=127
8187 On ch=11 n=44 v=0
8208 On ch=11 n=44 v=127
8236 On ch=11 n=44 v=0
8256 On ch=11 n=44 v=127
8284 On ch=11 n=44 v=0
8352 On ch=11 n=44 v=127
8374 On ch=11 n=44 v=0
8448 On ch=11 n=44 v=127
8484 On ch=11 n=44 v=0
8544 On ch=11 n=44 v=127
8587 On ch=11 n=44 v=0
8640 On ch=11 n=44 v=127
8667 On ch=11 n=44 v=0
8736 On ch=11 n=44 v=127
8764 On ch=11 n=44 v=0
8832 On ch=11 n=44 v=127
8868 On ch=11 n=44 v=0
8928 On ch=11 n=44 v=127
8955 On ch=11 n=44 v=0
8976 On ch=11 n=44 v=127
9004 On ch=11 n=44 v=0
9024 On ch=11 n=44 v=127
9052 On ch=11 n=44 v=0
9120 On ch=11 n=44 v=127
9142 On ch=11 n=44 v=0
9216 On ch=11 n=44 v=127
9252 On ch=11 n=44 v=0
9312 On ch=11 n=44 v=127
9355 On ch=11 n=44 v=0
9408 On ch=11 n=44 v=127
9435 On ch=11 n=44 v=0
9504 On ch=11 n=44 v=127
9532 On ch=11 n=44 v=0
9600 On ch=11 n=44 v=127
9636 On ch=11 n=44 v=0
9696 On ch=11 n=44 v=127
9723 On ch=11 n=44 v=0
9744 On ch=11 n=44 v=127
9772 On ch=11 n=44 v=0
9792 On ch=11 n=44 v=127
9820 On ch=11 n=44 v=0
9888 On ch=11 n=44 v=127
9910 On ch=11 n=44 v=0
9984 On ch=11 n=44 v=127
10020 On ch=11 n=44 v=0
10080 On ch=11 n=44 v=127
10123 On ch=11 n=44 v=0
10176 On ch=11 n=44 v=127
10203 On ch=11 n=44 v=0
10272 On ch=11 n=44 v=127
10300 On ch=11 n=44 v=0
10368 On ch=11 n=44 v=127
10404 On ch=11 n=44 v=0
10464 On ch=11 n=44 v=127
10491 On ch=11 n=44 v=0
10512 On ch=11 n=44 v=127
10540 On ch=11 n=44 v=0
10560 On ch=11 n=44 v=127
10588 On ch=11 n=44 v=0
10656 On ch=11 n=44 v=127
10678 On ch=11 n=44 v=0
10752 On ch=11 n=44 v=127
10788 On ch=11 n=44 v=0
10848 On ch=11 n=44 v=127
10891 On ch=11 n=44 v=0
10944 On ch=11 n=44 v=127
10971 On ch=11 n=44 v=0
11040 On ch=11 n=44 v=127
11068 On ch=11 n=44 v=0
11136 On ch=11 n=44 v=127
11172 On ch=11 n=44 v=0
11232 On ch=11 n=44 v=127
11259 On ch=11 n=44 v=0
11280 On ch=11 n=44 v=127
11308 On ch=11 n=44 v=0
11328 On ch=11 n=44 v=127
11356 On ch=11 n=44 v=0
11424 On ch=11 n=44 v=127
11446 On ch=11 n=44 v=0
11520 On ch=11 n=44 v=127
11556 On ch=11 n=44 v=0
11616 On ch=11 n=44 v=127
11659 On ch=11 n=44 v=0
11712 On ch=11 n=44 v=127
11739 On ch=11 n=44 v=0
11808 On ch=11 n=44 v=127
11836 On ch=11 n=44 v=0
11904 On ch=11 n=44 v=127
11940 On ch=11 n=44 v=0
12000 On ch=11 n=44 v=127
12027 On ch=11 n=44 v=0
12048 On ch=11 n=44 v=127
12076 On ch=11 n=44 v=0
12096 On ch=11 n=44 v=127
12124 On ch=11 n=44 v=0
12192 On ch=11 n=44 v=127
12214 On ch=11 n=44 v=0
12288 On ch=11 n=44 v=127
12324 On ch=11 n=44 v=0
12384 On ch=11 n=44 v=127
12427 On ch=11 n=44 v=0
12480 On ch=11 n=44 v=127
12507 On ch=11 n=44 v=0
12576 On ch=11 n=44 v=127
12604 On ch=11 n=44 v=0
12672 On ch=11 n=44 v=127
12708 On ch=11 n=44 v=0
12768 On ch=11 n=44 v=127
12795 On ch=11 n=44 v=0
12816 On ch=11 n=44 v=127
12844 On ch=11 n=44 v=0
12864 On ch=11 n=44 v=127
12892 On ch=11 n=44 v=0
12960 On ch=11 n=44 v=127
12982 On ch=11 n=44 v=0
13056 On ch=11 n=44 v=127
13092 On ch=11 n=44 v=0
13152 On ch=11 n=44 v=127
13195 On ch=11 n=44 v=0
13248 On ch=11 n=44 v=127
13275 On ch=11 n=44 v=0
13344 On ch=11 n=44 v=127
13372 On ch=11 n=44 v=0
13440 On ch=11 n=44 v=127
13476 On ch=11 n=44 v=0
13536 On ch=11 n=44 v=127
13563 On ch=11 n=44 v=0
13584 On ch=11 n=44 v=127
13612 On ch=11 n=44 v=0
13632 On ch=11 n=44 v=127
13660 On ch=11 n=44 v=0
13728 On ch=11 n=44 v=127
13750 On ch=11 n=44 v=0
13824 On ch=11 n=44 v=127
13860 On ch=11 n=44 v=0
13920 On ch=11 n=44 v=127
13963 On ch=11 n=44 v=0
14016 On ch=11 n=44 v=127
14043 On ch=11 n=44 v=0
14112 On ch=11 n=44 v=127
14140 On ch=11 n=44 v=0
14208 On ch=11 n=44 v=127
14244 On ch=11 n=44 v=0
14304 On ch=11 n=44 v=127
14331 On ch=11 n=44 v=0
14352 On ch=11 n=44 v=127
14380 On ch=11 n=44 v=0
14400 On ch=11 n=44 v=127
14428 On ch=11 n=44 v=0
14496 On ch=11 n=44 v=127
14518 On ch=11 n=44 v=0
14592 On ch=11 n=44 v=127
14628 On ch=11 n=44 v=0
14688 On ch=11 n=44 v=127
14731 On ch=11 n=44 v=0
14784 On ch=11 n=44 v=127
14811 On ch=11 n=44 v=0
14880 On ch=11 n=44 v=127
14908 On ch=11 n=44 v=0
14976 On ch=11 n=44 v=127
15012 On ch=11 n=44 v=0
15072 On ch=11 n=44 v=127
15099 On ch=11 n=44 v=0
15120 On ch=11 n=44 v=127
15148 On ch=11 n=44 v=0
15168 On ch=11 n=44 v=127
15196 On ch=11 n=44 v=0
15264 On ch=11 n=44 v=127
15286 On ch=11 n=44 v=0
15360 On ch=11 n=44 v=127
15396 On ch=11 n=44 v=0
15456 On ch=11 n=44 v=127
15499 On ch=11 n=44 v=0
15552 On ch=11 n=44 v=127
15579 On ch=11 n=44 v=0
15648 On ch=11 n=44 v=127
15676 On ch=11 n=44 v=0
15744 On ch=11 n=44 v=127
15780 On ch=11 n=44 v=0
15840 On ch=11 n=44 v=127
15867 On ch=11 n=44 v=0
15888 On ch=11 n=44 v=127
15916 On ch=11 n=44 v=0
15936 On ch=11 n=44 v=127
15964 On ch=11 n=44 v=0
16032 On ch=11 n=44 v=127
16054 On ch=11 n=44 v=0
16128 On ch=11 n=44 v=127
16164 On ch=11 n=44 v=0
16224 On ch=11 n=44 v=127
16267 On ch=11 n=44 v=0
16320 On ch=11 n=44 v=127
16347 On ch=11 n=44 v=0
16416 On ch=11 n=44 v=127
16444 On ch=11 n=44 v=0
16512 On ch=11 n=44 v=127
16548 On ch=11 n=44 v=0
16608 On ch=11 n=44 v=127
16635 On ch=11 n=44 v=0
16656 On ch=11 n=44 v=127
16684 On ch=11 n=44 v=0
16704 On ch=11 n=44 v=127
16732 On ch=11 n=44 v=0
16800 On ch=11 n=44 v=127
16822 On ch=11 n=44 v=0
16896 On ch=11 n=44 v=127
16932 On ch=11 n=44 v=0
16992 On ch=11 n=44 v=127
17035 On ch=11 n=44 v=0
17088 On ch=11 n=44 v=127
17115 On ch=11 n=44 v=0
17184 On ch=11 n=44 v=127
17212 On ch=11 n=44 v=0
17280 On ch=11 n=44 v=127
17316 On ch=11 n=44 v=0
17376 On ch=11 n=44 v=127
17403 On ch=11 n=44 v=0
17424 On ch=11 n=44 v=127
17452 On ch=11 n=44 v=0
17472 On ch=11 n=44 v=127
17500 On ch=11 n=44 v=0
17568 On ch=11 n=44 v=127
17590 On ch=11 n=44 v=0
17664 On ch=11 n=44 v=127
17700 On ch=11 n=44 v=0
17760 On ch=11 n=44 v=127
17803 On ch=11 n=44 v=0
17856 On ch=11 n=44 v=127
17883 On ch=11 n=44 v=0
17952 On ch=11 n=44 v=127
17980 On ch=11 n=44 v=0
18048 On ch=11 n=44 v=127
18084 On ch=11 n=44 v=0
18144 On ch=11 n=44 v=127
18171 On ch=11 n=44 v=0
18192 On ch=11 n=44 v=127
18220 On ch=11 n=44 v=0
18240 On ch=11 n=44 v=127
18268 On ch=11 n=44 v=0
18336 On ch=11 n=44 v=127
18358 On ch=11 n=44 v=0
18432 On ch=11 n=44 v=127
18468 On ch=11 n=44 v=0
18528 On ch=11 n=44 v=127
18571 On ch=11 n=44 v=0
18624 On ch=11 n=44 v=127
18651 On ch=11 n=44 v=0
18720 On ch=11 n=44 v=127
18748 On ch=11 n=44 v=0
18816 On ch=11 n=44 v=127
18852 On ch=11 n=44 v=0
18912 On ch=11 n=44 v=127
18939 On ch=11 n=44 v=0
18960 On ch=11 n=44 v=127
18988 On ch=11 n=44 v=0
19008 On ch=11 n=44 v=127
19036 On ch=11 n=44 v=0
19104 On ch=11 n=44 v=127
19126 On ch=11 n=44 v=0
19200 On ch=11 n=44 v=127
19236 On ch=11 n=44 v=0
19296 On ch=11 n=44 v=127
19339 On ch=11 n=44 v=0
19392 On ch=11 n=44 v=127
19419 On ch=11 n=44 v=0
19488 On ch=11 n=44 v=127
19516 On ch=11 n=44 v=0
19584 On ch=11 n=44 v=127
19620 On ch=11 n=44 v=0
19680 On ch=11 n=44 v=127
19707 On ch=11 n=44 v=0
19728 On ch=11 n=44 v=127
19756 On ch=11 n=44 v=0
19776 On ch=11 n=44 v=127
19804 On ch=11 n=44 v=0
19872 On ch=11 n=44 v=127
19894 On ch=11 n=44 v=0
19968 On ch=11 n=44 v=127
20004 On ch=11 n=44 v=0
20064 On ch=11 n=44 v=127
20107 On ch=11 n=44 v=0
20160 On ch=11 n=44 v=127
20187 On ch=11 n=44 v=0
20256 On ch=11 n=44 v=127
20284 On ch=11 n=44 v=0
20352 On ch=11 n=44 v=127
20388 On ch=11 n=44 v=0
20448 On ch=11 n=44 v=127
20475 On ch=11 n=44 v=0
20496 On ch=11 n=44 v=127
20524 On ch=11 n=44 v=0
20544 On ch=11 n=44 v=127
20572 On ch=11 n=44 v=0
20640 On ch=11 n=44 v=127
20662 On ch=11 n=44 v=0
20736 On ch=11 n=44 v=127
20772 On ch=11 n=44 v=0
20832 On ch=11 n=44 v=127
20875 On ch=11 n=44 v=0
20928 On ch=11 n=44 v=127
20955 On ch=11 n=44 v=0
21024 On ch=11 n=44 v=127
21052 On ch=11 n=44 v=0
21120 On ch=11 n=44 v=127
21156 On ch=11 n=44 v=0
21216 On ch=11 n=44 v=127
21243 On ch=11 n=44 v=0
21264 On ch=11 n=44 v=127
21292 On ch=11 n=44 v=0
21312 On ch=11 n=44 v=127
21340 On ch=11 n=44 v=0
21408 On ch=11 n=44 v=127
21430 On ch=11 n=44 v=0
21504 On ch=11 n=44 v=127
21540 On ch=11 n=44 v=0
21600 On ch=11 n=44 v=127
21643 On ch=11 n=44 v=0
21696 On ch=11 n=44 v=127
21723 On ch=11 n=44 v=0
21792 On ch=11 n=44 v=127
21820 On ch=11 n=44 v=0
21888 On ch=11 n=44 v=127
21924 On ch=11 n=44 v=0
21984 On ch=11 n=44 v=127
22011 On ch=11 n=44 v=0
22032 On ch=11 n=44 v=127
22060 On ch=11 n=44 v=0
22080 On ch=11 n=44 v=127
22108 On ch=11 n=44 v=0
22176 On ch=11 n=44 v=127
22198 On ch=11 n=44 v=0
22272 On ch=11 n=44 v=127
22308 On ch=11 n=44 v=0
22368 On ch=11 n=44 v=127
22411 On ch=11 n=44 v=0
22464 On ch=11 n=44 v=127
22491 On ch=11 n=44 v=0
22560 On ch=11 n=44 v=127
22588 On ch=11 n=44 v=0
22656 On ch=11 n=44 v=127
22692 On ch=11 n=44 v=0
22752 On ch=11 n=44 v=127
22779 On ch=11 n=44 v=0
22800 On ch=11 n=44 v=127
22828 On ch=11 n=44 v=0
22848 On ch=11 n=44 v=127
22876 On ch=11 n=44 v=0
22944 On ch=11 n=44 v=127
22966 On ch=11 n=44 v=0
23040 On ch=11 n=44 v=127
23076 On ch=11 n=44 v=0
23136 On ch=11 n=44 v=127
23179 On ch=11 n=44 v=0
23232 On ch=11 n=44 v=127
23259 On ch=11 n=44 v=0
23328 On ch=11 n=44 v=127
23356 On ch=11 n=44 v=0
23424 On ch=11 n=44 v=127
23460 On ch=11 n=44 v=0
23520 On ch=11 n=44 v=127
23547 On ch=11 n=44 v=0
23568 On ch=11 n=44 v=127
23596 On ch=11 n=44 v=0
23616 On ch=11 n=44 v=127
23644 On ch=11 n=44 v=0
23712 On ch=11 n=44 v=127
23734 On ch=11 n=44 v=0
23808 On ch=11 n=44 v=127
23844 On ch=11 n=44 v=0
23904 On ch=11 n=44 v=127
23947 On ch=11 n=44 v=0
24000 On ch=11 n=44 v=127
24027 On ch=11 n=44 v=0
24096 On ch=11 n=44 v=127
24124 On ch=11 n=44 v=0
24192 On ch=11 n=44 v=127
24228 On ch=11 n=44 v=0
24288 On ch=11 n=44 v=127
24315 On ch=11 n=44 v=0
24336 On ch=11 n=44 v=127
24364 On ch=11 n=44 v=0
24384 On ch=11 n=44 v=127
24412 On ch=11 n=44 v=0
24480 On ch=11 n=44 v=127
24502 On ch=11 n=44 v=0
24576 On ch=11 n=44 v=127
24612 On ch=11 n=44 v=0
24672 On ch=11 n=44 v=127
24715 On ch=11 n=44 v=0
24768 On ch=11 n=44 v=127
24795 On ch=11 n=44 v=0
24864 On ch=11 n=44 v=127
24892 On ch=11 n=44 v=0
24960 On ch=11 n=44 v=127
24996 On ch=11 n=44 v=0
25056 On ch=11 n=44 v=127
25083 On ch=11 n=44 v=0
25104 On ch=11 n=44 v=127
25132 On ch=11 n=44 v=0
25152 On ch=11 n=44 v=127
25180 On ch=11 n=44 v=0
25248 On ch=11 n=44 v=127
25270 On ch=11 n=44 v=0
25344 On ch=11 n=44 v=127
25380 On ch=11 n=44 v=0
25440 On ch=11 n=44 v=127
25483 On ch=11 n=44 v=0
25536 On ch=11 n=44 v=127
25563 On ch=11 n=44 v=0
25632 On ch=11 n=44 v=127
25660 On ch=11 n=44 v=0
25728 On ch=11 n=44 v=127
25764 On ch=11 n=44 v=0
25824 On ch=11 n=44 v=127
25851 On ch=11 n=44 v=0
25872 On ch=11 n=44 v=127
25900 On ch=11 n=44 v=0
25920 On ch=11 n=44 v=127
25948 On ch=11 n=44 v=0
26016 On ch=11 n=44 v=127
26038 On ch=11 n=44 v=0
26112 On ch=11 n=44 v=127
26148 On ch=11 n=44 v=0
26208 On ch=11 n=44 v=127
26251 On ch=11 n=44 v=0
26304 On ch=11 n=44 v=127
26331 On ch=11 n=44 v=0
26400 On ch=11 n=44 v=127
26428 On ch=11 n=44 v=0
26496 On ch=11 n=44 v=127
26532 On ch=11 n=44 v=0
26592 On ch=11 n=44 v=127
26619 On ch=11 n=44 v=0
26640 On ch=11 n=44 v=127
26668 On ch=11 n=44 v=0
26688 On ch=11 n=44 v=127
26716 On ch=11 n=44 v=0
26784 On ch=11 n=44 v=127
26806 On ch=11 n=44 v=0
26880 On ch=11 n=44 v=127
26916 On ch=11 n=44 v=0
26976 On ch=11 n=44 v=127
27019 On ch=11 n=44 v=0
27072 On ch=11 n=44 v=127
27099 On ch=11 n=44 v=0
27168 On ch=11 n=44 v=127
27196 On ch=11 n=44 v=0
27264 On ch=11 n=44 v=127
27300 On ch=11 n=44 v=0
27360 On ch=11 n=44 v=127
27387 On ch=11 n=44 v=0
27408 On ch=11 n=44 v=127
27436 On ch=11 n=44 v=0
27456 On ch=11 n=44 v=127
27484 On ch=11 n=44 v=0
27552 On ch=11 n=44 v=127
27574 On ch=11 n=44 v=0
27648 On ch=11 n=44 v=127
27684 On ch=11 n=44 v=0
27744 On ch=11 n=44 v=127
27787 On ch=11 n=44 v=0
27840 On ch=11 n=44 v=127
27867 On ch=11 n=44 v=0
27936 On ch=11 n=44 v=127
27964 On ch=11 n=44 v=0
28032 On ch=11 n=44 v=127
28068 On ch=11 n=44 v=0
28128 On ch=11 n=44 v=127
28155 On ch=11 n=44 v=0
28176 On ch=11 n=44 v=127
28204 On ch=11 n=44 v=0
28224 On ch=11 n=44 v=127
28252 On ch=11 n=44 v=0
28320 On ch=11 n=44 v=127
28342 On ch=11 n=44 v=0
28416 On ch=11 n=44 v=127
28452 On ch=11 n=44 v=0
28512 On ch=11 n=44 v=127
28555 On ch=11 n=44 v=0
28608 On ch=11 n=44 v=127
28635 On ch=11 n=44 v=0
28704 On ch=11 n=44 v=127
28732 On ch=11 n=44 v=0
28800 On ch=11 n=44 v=127
28836 On ch=11 n=44 v=0
28896 On ch=11 n=44 v=127
28923 On ch=11 n=44 v=0
28944 On ch=11 n=44 v=127
28972 On ch=11 n=44 v=0
28992 On ch=11 n=44 v=127
29020 On ch=11 n=44 v=0
29088 On ch=11 n=44 v=127
29110 On ch=11 n=44 v=0
29184 On ch=11 n=44 v=127
29220 On ch=11 n=44 v=0
29280 On ch=11 n=44 v=127
29323 On ch=11 n=44 v=0
29376 On ch=11 n=44 v=127
29403 On ch=11 n=44 v=0
29472 On ch=11 n=44 v=127
29500 On ch=11 n=44 v=0
29568 On ch=11 n=44 v=127
29604 On ch=11 n=44 v=0
29664 On ch=11 n=44 v=127
29691 On ch=11 n=44 v=0
29712 On ch=11 n=44 v=127
29740 On ch=11 n=44 v=0
29760 On ch=11 n=44 v=127
29788 On ch=11 n=44 v=0
29856 On ch=11 n=44 v=127
29878 On ch=11 n=44 v=0
29952 On ch=11 n=44 v=127
29988 On ch=11 n=44 v=0
30048 On ch=11 n=44 v=127
30091 On ch=11 n=44 v=0
30144 On ch=11 n=44 v=127
30171 On ch=11 n=44 v=0
30240 On ch=11 n=44 v=127
30268 On ch=11 n=44 v=0
30336 On ch=11 n=44 v=127
30372 On ch=11 n=44 v=0
30432 On ch=11 n=44 v=127
30459 On ch=11 n=44 v=0
30480 On ch=11 n=44 v=127
30508 On ch=11 n=44 v=0
30528 On ch=11 n=44 v=127
30556 On ch=11 n=44 v=0
30624 On ch=11 n=44 v=127
30646 On ch=11 n=44 v=0
30720 On ch=11 n=44 v=127
30756 On ch=11 n=44 v=0
30816 On ch=11 n=44 v=127
30859 On ch=11 n=44 v=0
30912 On ch=11 n=44 v=127
30939 On ch=11 n=44 v=0
31008 On ch=11 n=44 v=127
31036 On ch=11 n=44 v=0
31104 On ch=11 n=44 v=127
31140 On ch=11 n=44 v=0
31200 On ch=11 n=44 v=127
31227 On ch=11 n=44 v=0
31248 On ch=11 n=44 v=127
31276 On ch=11 n=44 v=0
31296 On ch=11 n=44 v=127
31324 On ch=11 n=44 v=0
31392 On ch=11 n=44 v=127
31414 On ch=11 n=44 v=0
31488 On ch=11 n=44 v=127
31524 On ch=11 n=44 v=0
31584 On ch=11 n=44 v=127
31627 On ch=11 n=44 v=0
31680 On ch=11 n=44 v=127
31707 On ch=11 n=44 v=0
31776 On ch=11 n=44 v=127
31804 On ch=11 n=44 v=0
31872 On ch=11 n=44 v=127
31908 On ch=11 n=44 v=0
31968 On ch=11 n=44 v=127
31995 On ch=11 n=44 v=0
32016 On ch=11 n=44 v=127
32044 On ch=11 n=44 v=0
32064 On ch=11 n=44 v=127
32092 On ch=11 n=44 v=0
32160 On ch=11 n=44 v=127
32182 On ch=11 n=44 v=0
32256 On ch=11 n=44 v=127
32292 On ch=11 n=44 v=0
32352 On ch=11 n=44 v=127
32395 On ch=11 n=44 v=0
32448 On ch=11 n=44 v=127
32475 On ch=11 n=44 v=0
32544 On ch=11 n=44 v=127
32572 On ch=11 n=44 v=0
32640 On ch=11 n=44 v=127
32676 On ch=11 n=44 v=0
32736 On ch=11 n=44 v=127
32763 On ch=11 n=44 v=0
32784 On ch=11 n=44 v=127
32812 On ch=11 n=44 v=0
32832 On ch=11 n=44 v=127
32860 On ch=11 n=44 v=0
32928 On ch=11 n=44 v=127
32950 On ch=11 n=44 v=0
33024 On ch=11 n=44 v=127
33060 On ch=11 n=44 v=0
33120 On ch=11 n=44 v=127
33163 On ch=11 n=44 v=0
33216 On ch=11 n=44 v=127
33243 On ch=11 n=44 v=0
33312 On ch=11 n=44 v=127
33340 On ch=11 n=44 v=0
33408 On ch=11 n=44 v=127
33444 On ch=11 n=44 v=0
33504 On ch=11 n=44 v=127
33531 On ch=11 n=44 v=0
33552 On ch=11 n=44 v=127
33580 On ch=11 n=44 v=0
33600 On ch=11 n=44 v=127
33628 On ch=11 n=44 v=0
33696 On ch=11 n=44 v=127
33718 On ch=11 n=44 v=0
33792 On ch=11 n=44 v=127
33828 On ch=11 n=44 v=0
33888 On ch=11 n=44 v=127
33931 On ch=11 n=44 v=0
33984 On ch=11 n=44 v=127
34011 On ch=11 n=44 v=0
34080 On ch=11 n=44 v=127
34108 On ch=11 n=44 v=0
34176 On ch=11 n=44 v=127
34212 On ch=11 n=44 v=0
34272 On ch=11 n=44 v=127
34299 On ch=11 n=44 v=0
34320 On ch=11 n=44 v=127
34348 On ch=11 n=44 v=0
34368 On ch=11 n=44 v=127
34396 On ch=11 n=44 v=0
34464 On ch=11 n=44 v=127
34486 On ch=11 n=44 v=0
34560 On ch=11 n=44 v=127
34596 On ch=11 n=44 v=0
34656 On ch=11 n=44 v=127
34699 On ch=11 n=44 v=0
34752 On ch=11 n=44 v=127
34779 On ch=11 n=44 v=0
34848 On ch=11 n=44 v=127
34876 On ch=11 n=44 v=0
34944 On ch=11 n=44 v=127
34980 On ch=11 n=44 v=0
35040 On ch=11 n=44 v=127
35067 On ch=11 n=44 v=0
35088 On ch=11 n=44 v=127
35116 On ch=11 n=44 v=0
35136 On ch=11 n=44 v=127
35164 On ch=11 n=44 v=0
35232 On ch=11 n=44 v=127
35254 On ch=11 n=44 v=0
35328 On ch=11 n=44 v=127
35364 On ch=11 n=44 v=0
35424 On ch=11 n=44 v=127
35467 On ch=11 n=44 v=0
35520 On ch=11 n=44 v=127
35547 On ch=11 n=44 v=0
35616 On ch=11 n=44 v=127
35644 On ch=11 n=44 v=0
35712 On ch=11 n=44 v=127
35748 On ch=11 n=44 v=0
35808 On ch=11 n=44 v=127
35835 On ch=11 n=44 v=0
35856 On ch=11 n=44 v=127
35884 On ch=11 n=44 v=0
35904 On ch=11 n=44 v=127
35932 On ch=11 n=44 v=0
36000 On ch=11 n=44 v=127
36022 On ch=11 n=44 v=0
36096 On ch=11 n=44 v=127
36132 On ch=11 n=44 v=0
36192 On ch=11 n=44 v=127
36235 On ch=11 n=44 v=0
36288 On ch=11 n=44 v=127
36315 On ch=11 n=44 v=0
36384 On ch=11 n=44 v=127
36412 On ch=11 n=44 v=0
36480 On ch=11 n=44 v=127
36516 On ch=11 n=44 v=0
36576 On ch=11 n=44 v=127
36603 On ch=11 n=44 v=0
36624 On ch=11 n=44 v=127
36652 On ch=11 n=44 v=0
36672 On ch=11 n=44 v=127
36700 On ch=11 n=44 v=0
36768 On ch=11 n=44 v=127
36790 On ch=11 n=44 v=0
36864 On ch=11 n=44 v=127
36900 On ch=11 n=44 v=0
36960 On ch=11 n=44 v=127
37003 On ch=11 n=44 v=0
37056 On ch=11 n=44 v=127
37083 On ch=11 n=44 v=0
37152 On ch=11 n=44 v=127
37180 On ch=11 n=44 v=0
37248 On ch=11 n=44 v=127
37284 On ch=11 n=44 v=0
37344 On ch=11 n=44 v=127
37371 On ch=11 n=44 v=0
37392 On ch=11 n=44 v=127
37420 On ch=11 n=44 v=0
37440 On ch=11 n=44 v=127
37468 On ch=11 n=44 v=0
37536 On ch=11 n=44 v=127
37558 On ch=11 n=44 v=0
37632 On ch=11 n=44 v=127
37668 On ch=11 n=44 v=0
37728 On ch=11 n=44 v=127
37771 On ch=11 n=44 v=0
37824 On ch=11 n=44 v=127
37851 On ch=11 n=44 v=0
37920 On ch=11 n=44 v=127
37948 On ch=11 n=44 v=0
38016 On ch=11 n=44 v=127
38052 On ch=11 n=44 v=0
38112 On ch=11 n=44 v=127
38139 On ch=11 n=44 v=0
38160 On ch=11 n=44 v=127
38188 On ch=11 n=44 v=0
38208 On ch=11 n=44 v=127
38236 On ch=11 n=44 v=0
38304 On ch=11 n=44 v=127
38326 On ch=11 n=44 v=0
38400 On ch=11 n=44 v=127
38436 On ch=11 n=44 v=0
38496 On ch=11 n=44 v=127
38539 On ch=11 n=44 v=0
38592 On ch=11 n=44 v=127
38619 On ch=11 n=44 v=0
38688 On ch=11 n=44 v=127
38716 On ch=11 n=44 v=0
38784 On ch=11 n=44 v=127
38820 On ch=11 n=44 v=0
38880 On ch=11 n=44 v=127
38907 On ch=11 n=44 v=0
38928 On ch=11 n=44 v=127
38956 On ch=11 n=44 v=0
38976 On ch=11 n=44 v=127
39004 On ch=11 n=44 v=0
39072 On ch=11 n=44 v=127
39094 On ch=11 n=44 v=0
39168 On ch=11 n=44 v=127
39204 On ch=11 n=44 v=0
39264 On ch=11 n=44 v=127
39307 On ch=11 n=44 v=0
39360 On ch=11 n=44 v=127
39387 On ch=11 n=44 v=0
39456 On ch=11 n=44 v=127
39484 On ch=11 n=44 v=0
39552 On ch=11 n=44 v=127
39588 On ch=11 n=44 v=0
39648 On ch=11 n=44 v=127
39675 On ch=11 n=44 v=0
39696 On ch=11 n=44 v=127
39724 On ch=11 n=44 v=0
39744 On ch=11 n=44 v=127
39772 On ch=11 n=44 v=0
39840 On ch=11 n=44 v=127
39862 On ch=11 n=44 v=0
39936 On ch=11 n=44 v=127
39972 On ch=11 n=44 v=0
40032 On ch=11 n=44 v=127
40075 On ch=11 n=44 v=0
40128 On ch=11 n=44 v=127
40155 On ch=11 n=44 v=0
40224 On ch=11 n=44 v=127
40252 On ch=11 n=44 v=0
40320 On ch=11 n=44 v=127
40356 On ch=11 n=44 v=0
40416 On ch=11 n=44 v=127
40443 On ch=11 n=44 v=0
40464 On ch=11 n=44 v=127
40492 On ch=11 n=44 v=0
40512 On ch=11 n=44 v=127
40540 On ch=11 n=44 v=0
40608 On ch=11 n=44 v=127
40630 On ch=11 n=44 v=0
40704 On ch=11 n=44 v=127
40740 On ch=11 n=44 v=0
40800 On ch=11 n=44 v=127
40843 On ch=11 n=44 v=0
40896 On ch=11 n=44 v=127
40923 On ch=11 n=44 v=0
40992 On ch=11 n=44 v=127
41020 On ch=11 n=44 v=0
41088 On ch=11 n=44 v=127
41124 On ch=11 n=44 v=0
41184 On ch=11 n=44 v=127
41211 On ch=11 n=44 v=0
41232 On ch=11 n=44 v=127
41260 On ch=11 n=44 v=0
41280 On ch=11 n=44 v=127
41308 On ch=11 n=44 v=0
41376 On ch=11 n=44 v=127
41398 On ch=11 n=44 v=0
41472 On ch=11 n=44 v=127
41508 On ch=11 n=44 v=0
41568 On ch=11 n=44 v=127
41611 On ch=11 n=44 v=0
41664 On ch=11 n=44 v=127
41691 On ch=11 n=44 v=0
41760 On ch=11 n=44 v=127
41788 On ch=11 n=44 v=0
41856 On ch=11 n=44 v=127
41892 On ch=11 n=44 v=0
41952 On ch=11 n=44 v=127
41979 On ch=11 n=44 v=0
42000 On ch=11 n=44 v=127
42028 On ch=11 n=44 v=0
42048 On ch=11 n=44 v=127
42076 On ch=11 n=44 v=0
42144 On ch=11 n=44 v=127
42166 On ch=11 n=44 v=0
42240 On ch=11 n=44 v=127
42276 On ch=11 n=44 v=0
42336 On ch=11 n=44 v=127
42379 On ch=11 n=44 v=0
42432 On ch=11 n=44 v=127
42459 On ch=11 n=44 v=0
42528 On ch=11 n=44 v=127
42556 On ch=11 n=44 v=0
42624 On ch=11 n=44 v=127
42660 On ch=11 n=44 v=0
42720 On ch=11 n=44 v=127
42747 On ch=11 n=44 v=0
42768 On ch=11 n=44 v=127
42796 On ch=11 n=44 v=0
42816 On ch=11 n=44 v=127
42844 On ch=11 n=44 v=0
42912 On ch=11 n=44 v=127
42934 On ch=11 n=44 v=0
43008 On ch=11 n=44 v=127
43044 On ch=11 n=44 v=0
43104 On ch=11 n=44 v=127
43147 On ch=11 n=44 v=0
43200 On ch=11 n=44 v=127
43227 On ch=11 n=44 v=0
43296 On ch=11 n=44 v=127
43324 On ch=11 n=44 v=0
43392 On ch=11 n=44 v=127
43428 On ch=11 n=44 v=0
43488 On ch=11 n=44 v=127
43515 On ch=11 n=44 v=0
43536 On ch=11 n=44 v=127
43564 On ch=11 n=44 v=0
43584 On ch=11 n=44 v=127
43612 On ch=11 n=44 v=0
43680 On ch=11 n=44 v=127
43702 On ch=11 n=44 v=0
43776 On ch=11 n=44 v=127
43812 On ch=11 n=44 v=0
43872 On ch=11 n=44 v=127
43915 On ch=11 n=44 v=0
43968 On ch=11 n=44 v=127
43995 On ch=11 n=44 v=0
44064 On ch=11 n=44 v=127
44092 On ch=11 n=44 v=0
44160 On ch=11 n=44 v=127
44196 On ch=11 n=44 v=0
44256 On ch=11 n=44 v=127
44283 On ch=11 n=44 v=0
44304 On ch=11 n=44 v=127
44332 On ch=11 n=44 v=0
44352 On ch=11 n=44 v=127
44380 On ch=11 n=44 v=0
44448 On ch=11 n=44 v=127
44470 On ch=11 n=44 v=0
44544 On ch=11 n=44 v=127
44580 On ch=11 n=44 v=0
44640 On ch=11 n=44 v=127
44683 On ch=11 n=44 v=0
44736 On ch=11 n=44 v=127
44763 On ch=11 n=44 v=0
44832 On ch=11 n=44 v=127
44860 On ch=11 n=44 v=0
44928 On ch=11 n=44 v=127
44964 On ch=11 n=44 v=0
45024 On ch=11 n=44 v=127
45051 On ch=11 n=44 v=0
45072 On ch=11 n=44 v=127
45100 On ch=11 n=44 v=0
45120 On ch=11 n=44 v=127
45148 On ch=11 n=44 v=0
45216 On ch=11 n=44 v=127
45238 On ch=11 n=44 v=0
45312 On ch=11 n=44 v=127
45348 On ch=11 n=44 v=0
45408 On ch=11 n=44 v=127
45451 On ch=11 n=44 v=0
45504 On ch=11 n=44 v=127
45531 On ch=11 n=44 v=0
45600 On ch=11 n=44 v=127
45628 On ch=11 n=44 v=0
45696 On ch=11 n=44 v=127
45732 On ch=11 n=44 v=0
45792 On ch=11 n=44 v=127
45819 On ch=11 n=44 v=0
45840 On ch=11 n=44 v=127
45868 On ch=11 n=44 v=0
45888 On ch=11 n=44 v=127
45916 On ch=11 n=44 v=0
45984 On ch=11 n=44 v=127
46006 On ch=11 n=44 v=0
46080 On ch=11 n=44 v=127
46116 On ch=11 n=44 v=0
46176 On ch=11 n=44 v=127
46219 On ch=11 n=44 v=0
46272 On ch=11 n=44 v=127
46299 On ch=11 n=44 v=0
46368 On ch=11 n=44 v=127
46396 On ch=11 n=44 v=0
46464 On ch=11 n=44 v=127
46500 On ch=11 n=44 v=0
46560 On ch=11 n=44 v=127
46587 On ch=11 n=44 v=0
46608 On ch=11 n=44 v=127
46636 On ch=11 n=44 v=0
46656 On ch=11 n=44 v=127
46684 On ch=11 n=44 v=0
46752 On ch=11 n=44 v=127
46774 On ch=11 n=44 v=0
46848 On ch=11 n=44 v=127
46884 On ch=11 n=44 v=0
46944 On ch=11 n=44 v=127
46987 On ch=11 n=44 v=0
47040 On ch=11 n=44 v=127
47067 On ch=11 n=44 v=0
47136 On ch=11 n=44 v=127
47164 On ch=11 n=44 v=0
47232 On ch=11 n=44 v=127
47268 On ch=11 n=44 v=0
47328 On ch=11 n=44 v=127
47355 On ch=11 n=44 v=0
47376 On ch=11 n=44 v=127
47404 On ch=11 n=44 v=0
47424 On ch=11 n=44 v=127
47452 On ch=11 n=44 v=0
47520 On ch=11 n=44 v=127
47542 On ch=11 n=44 v=0
47616 On ch=11 n=44 v=127
47652 On ch=11 n=44 v=0
47712 On ch=11 n=44 v=127
47755 On ch=11 n=44 v=0
47808 On ch=11 n=44 v=127
47835 On ch=11 n=44 v=0
47904 On ch=11 n=44 v=127
47932 On ch=11 n=44 v=0
48000 On ch=11 n=44 v=127
48036 On ch=11 n=44 v=0
48096 On ch=11 n=44 v=127
48123 On ch=11 n=44 v=0
48144 On ch=11 n=44 v=127
48172 On ch=11 n=44 v=0
48192 On ch=11 n=44 v=127
48220 On ch=11 n=44 v=0
48288 On ch=11 n=44 v=127
48310 On ch=11 n=44 v=0
48384 On ch=11 n=44 v=127
48420 On ch=11 n=44 v=0
48480 On ch=11 n=44 v=127
48523 On ch=11 n=44 v=0
48576 On ch=11 n=44 v=127
48603 On ch=11 n=44 v=0
48672 On ch=11 n=44 v=127
48700 On ch=11 n=44 v=0
48768 On ch=11 n=44 v=127
48804 On ch=11 n=44 v=0
48864 On ch=11 n=44 v=127
48891 On ch=11 n=44 v=0
48912 On ch=11 n=44 v=127
48940 On ch=11 n=44 v=0
48960 On ch=11 n=44 v=127
48988 On ch=11 n=44 v=0
49056 On ch=11 n=44 v=127
49078 On ch=11 n=44 v=0
49152 On ch=11 n=44 v=127
49188 On ch=11 n=44 v=0
49248 On ch=11 n=44 v=127
49291 On ch=11 n=44 v=0
49344 On ch=11 n=44 v=127
49371 On ch=11 n=44 v=0
49440 On ch=11 n=44 v=127
49468 On ch=11 n=44 v=0
49536 On ch=11 n=44 v=127
49572 On ch=11 n=44 v=0
49632 On ch=11 n=44 v=127
49659 On ch=11 n=44 v=0
49680 On ch=11 n=44 v=127
49708 On ch=11 n=44 v=0
49728 On ch=11 n=44 v=127
49756 On ch=11 n=44 v=0
49824 On ch=11 n=44 v=127
49846 On ch=11 n=44 v=0
49920 On ch=11 n=44 v=127
49956 On ch=11 n=44 v=0
50016 On ch=11 n=44 v=127
50059 On ch=11 n=44 v=0
50112 On ch=11 n=44 v=127
50139 On ch=11 n=44 v=0
50208 On ch=11 n=44 v=127
50236 On ch=11 n=44 v=0
50304 On ch=11 n=44 v=127
50340 On ch=11 n=44 v=0
50400 On ch=11 n=44 v=127
50427 On ch=11 n=44 v=0
50448 On ch=11 n=44 v=127
50476 On ch=11 n=44 v=0
50496 On ch=11 n=44 v=127
50524 On ch=11 n=44 v=0
50592 On ch=11 n=44 v=127
50614 On ch=11 n=44 v=0
50614 Meta TrkEnd
TrkEnd
MTrk
0 Meta TrkName "Bent Cymbal"
0 PrCh ch=12 p=0
0 Par ch=12 c=7 v=111
3025 Pb ch=12 v=7644
3028 Pb ch=12 v=6492
3033 Pb ch=12 v=4956
3036 Pb ch=12 v=2268
3041 Pb ch=12 v=0
3044 Pb ch=12 v=0
3048 On ch=12 n=59 v=127
3100 Pb ch=12 v=2524
3105 Pb ch=12 v=6108
3108 Pb ch=12 v=8192
3128 Pb ch=12 v=8192
3134 Pb ch=12 v=8704
3150 Pb ch=12 v=8192
3155 Pb ch=12 v=8192
3190 Pb ch=12 v=8192
3193 Pb ch=12 v=7260
3198 Pb ch=12 v=6748
3206 Pb ch=12 v=5852
3214 Pb ch=12 v=4828
3222 Pb ch=12 v=4316
3236 Pb ch=12 v=3036
3251 Pb ch=12 v=2012
3288 Pb ch=12 v=3804
3292 Pb ch=12 v=5468
3297 Pb ch=12 v=6876
3300 Pb ch=12 v=8192
3318 Pb ch=12 v=8192
3323 Pb ch=12 v=9216
3326 Pb ch=12 v=9984
3339 Pb ch=12 v=10496
3352 Pb ch=12 v=9600
3356 Pb ch=12 v=8576
3361 Pb ch=12 v=8192
3384 Pb ch=12 v=8192
3387 Pb ch=12 v=7132
3392 Pb ch=12 v=6108
3396 Pb ch=12 v=5340
3400 Pb ch=12 v=4316
3404 Pb ch=12 v=2524
3408 Pb ch=12 v=988
3412 Pb ch=12 v=0
3420 Pb ch=12 v=0
3441 Pb ch=12 v=0
3462 Pb ch=12 v=0
3465 Pb ch=12 v=2012
3470 Pb ch=12 v=4956
3473 Pb ch=12 v=6748
3478 Pb ch=12 v=8192
3512 Pb ch=12 v=8192
3518 Pb ch=12 v=8704
3526 Pb ch=12 v=9344
3558 Pb ch=12 v=8832
3563 Pb ch=12 v=8192
3568 Pb ch=12 v=8192
3593 Pb ch=12 v=7900
3598 Pb ch=12 v=6876
3601 Pb ch=12 v=5468
3606 Pb ch=12 v=3548
3611 Pb ch=12 v=2524
3614 Pb ch=12 v=0
3619 Pb ch=12 v=0
3630 Pb ch=12 v=0
3664 Pb ch=12 v=0
3668 Pb ch=12 v=3036
3672 Pb ch=12 v=4828
3676 Pb ch=12 v=6876
3683 Pb ch=12 v=8192
4481 On ch=12 n=59 v=0
4720 Pb ch=12 v=7132
4721 Pb ch=12 v=6364
4726 Pb ch=12 v=4700
4729 Pb ch=12 v=2268
4734 Pb ch=12 v=0
4753 On ch=12 n=59 v=127
4811 Pb ch=12 v=0
4814 Pb ch=12 v=4316
4819 Pb ch=12 v=7644
4824 Pb ch=12 v=8192
4840 Pb ch=12 v=8192
4843 Pb ch=12 v=9344
4846 Pb ch=12 v=9984
4851 Pb ch=12 v=10496
4862 Pb ch=12 v=11008
4891 Pb ch=12 v=10496
4899 Pb ch=12 v=9728
4904 Pb ch=12 v=9088
4907 Pb ch=12 v=8448
4912 Pb ch=12 v=8192
4937 Pb ch=12 v=8192
4940 Pb ch=12 v=6620
4945 Pb ch=12 v=5340
4948 Pb ch=12 v=3036
4953 Pb ch=12 v=0
4958 Pb ch=12 v=0
4998 Pb ch=12 v=4316
5003 Pb ch=12 v=6236
5006 Pb ch=12 v=8192
5028 Pb ch=12 v=8192
5033 Pb ch=12 v=9088
5036 Pb ch=12 v=9600
5041 Pb ch=12 v=10112
5052 Pb ch=12 v=10624
5075 Pb ch=12 v=9984
5078 Pb ch=12 v=9472
5083 Pb ch=12 v=8448
5086 Pb ch=12 v=8192
5112 Pb ch=12 v=7900
5118 Pb ch=12 v=6876
5121 Pb ch=12 v=5596
5126 Pb ch=12 v=3804
5129 Pb ch=12 v=1500
5134 Pb ch=12 v=0
5139 Pb ch=12 v=0
5182 Pb ch=12 v=0
5185 Pb ch=12 v=4572
5192 Pb ch=12 v=8192
5217 Pb ch=12 v=8704
5222 Pb ch=12 v=9344
5225 Pb ch=12 v=9856
5233 Pb ch=12 v=10368
5262 Pb ch=12 v=9472
5267 Pb ch=12 v=8832
5270 Pb ch=12 v=8192
5296 Pb ch=12 v=6876
5299 Pb ch=12 v=5852
5305 Pb ch=12 v=2780
5310 Pb ch=12 v=0
5313 Pb ch=12 v=0
5376 Pb ch=12 v=988
5382 Pb ch=12 v=6492
5385 Pb ch=12 v=8192
5504 Pb ch=12 v=8192
5507 Pb ch=12 v=6364
5510 Pb ch=12 v=4444
5515 Pb ch=12 v=2012
5520 Pb ch=12 v=0
5524 Pb ch=12 v=0
5576 Pb ch=12 v=0
5579 Pb ch=12 v=988
5584 Pb ch=12 v=5340
5588 Pb ch=12 v=7260
5592 Pb ch=12 v=8192
5620 Pb ch=12 v=8192
5627 Pb ch=12 v=8192
5773 On ch=12 n=59 v=0
6480 On ch=12 n=59 v=127
6491 Pb ch=12 v=6620
6494 Pb ch=12 v=4828
6499 Pb ch=12 v=0
6504 Pb ch=12 v=0
6561 Pb ch=12 v=1500
6564 Pb ch=12 v=4956
6569 Pb ch=12 v=8192
6574 Pb ch=12 v=8192
6592 Pb ch=12 v=8320
6595 Pb ch=12 v=9216
6604 Pb ch=12 v=10112
6611 Pb ch=12 v=10752
6654 Pb ch=12 v=10240
6662 Pb ch=12 v=9472
6667 Pb ch=12 v=8704
6670 Pb ch=12 v=8192
6697 Pb ch=12 v=6876
6700 Pb ch=12 v=5852
6705 Pb ch=12 v=3292
6710 Pb ch=12 v=0
6713 Pb ch=12 v=0
6752 Pb ch=12 v=0
6755 Pb ch=12 v=3036
6760 Pb ch=12 v=6492
6764 Pb ch=12 v=8192
6768 Pb ch=12 v=8192
6790 Pb ch=12 v=8320
6795 Pb ch=12 v=9088
6833 Pb ch=12 v=8320
6838 Pb ch=12 v=8192
6870 Pb ch=12 v=7644
6875 Pb ch=12 v=6236
6878 Pb ch=12 v=4828
6883 Pb ch=12 v=988
6888 Pb ch=12 v=0
6891 Pb ch=12 v=0
6932 Pb ch=12 v=1500
6936 Pb ch=12 v=5084
6940 Pb ch=12 v=7260
6944 Pb ch=12 v=8192
6976 Pb ch=12 v=8192
6995 Pb ch=12 v=8192
7032 Pb ch=12 v=7644
7035 Pb ch=12 v=6876
7040 Pb ch=12 v=5468
7044 Pb ch=12 v=4316
7048 Pb ch=12 v=1500
7052 Pb ch=12 v=0
7056 Pb ch=12 v=0
7124 Pb ch=12 v=0
7128 Pb ch=12 v=988
7134 Pb ch=12 v=4828
7137 Pb ch=12 v=6876
7142 Pb ch=12 v=8192
7145 Pb ch=12 v=8192
7316 Pb ch=12 v=7900
7320 Pb ch=12 v=7388
7324 Pb ch=12 v=6876
7331 Pb ch=12 v=6620
7340 Pb ch=12 v=6108
7376 Pb ch=12 v=6748
7380 Pb ch=12 v=7388
7384 Pb ch=12 v=8192
7979 On ch=12 n=59 v=0
8012 Pb ch=12 v=8192
8017 Pb ch=12 v=6108
8022 Pb ch=12 v=4700
8025 Pb ch=12 v=1500
8030 Pb ch=12 v=0
8033 Pb ch=12 v=0
8072 On ch=12 n=59 v=127
8084 Pb ch=12 v=0
8089 Pb ch=12 v=2268
8094 Pb ch=12 v=6492
8097 Pb ch=12 v=8192
8110 Pb ch=12 v=8576
8113 Pb ch=12 v=10112
8116 Pb ch=12 v=11648
8121 Pb ch=12 v=13184
8126 Pb ch=12 v=15744
8129 Pb ch=12 v=16348
8195 Pb ch=12 v=16348
8214 Pb ch=12 v=16348
8747 Pb ch=12 v=16348
8753 Pb ch=12 v=16348
8761 Pb ch=12 v=15744
8769 Pb ch=12 v=13440
8774 Pb ch=12 v=11904
8779 Pb ch=12 v=8192
8779 On ch=12 n=59 v=0
9571 On ch=12 n=59 v=127
9572 Pb ch=12 v=9600
9577 Pb ch=12 v=11648
9580 Pb ch=12 v=16348
9585 Pb ch=12 v=16348
9651 Pb ch=12 v=14208
9654 Pb ch=12 v=11392
9659 Pb ch=12 v=9344
9664 Pb ch=12 v=8192
9681 Pb ch=12 v=7644
9686 Pb ch=12 v=6620
9689 Pb ch=12 v=5724
9694 Pb ch=12 v=4700
9700 Pb ch=12 v=3804
9702 Pb ch=12 v=2780
10913 Pb ch=12 v=4316
10921 Pb ch=12 v=4828
10928 Pb ch=12 v=5596
10934 On ch=12 n=59 v=0
10936 Pb ch=12 v=6620
10940 Pb ch=12 v=6876
10944 Pb ch=12 v=7516
10950 Pb ch=12 v=8192
11088 Pb ch=12 v=8192
11091 Pb ch=12 v=6492
11094 Pb ch=12 v=4828
11099 Pb ch=12 v=0
11102 Pb ch=12 v=0
11112 On ch=12 n=59 v=127
11166 Pb ch=12 v=2524
11169 Pb ch=12 v=6876
11174 Pb ch=12 v=8192
11188 Pb ch=12 v=8192
11193 Pb ch=12 v=8960
11198 Pb ch=12 v=9472
11201 Pb ch=12 v=9984
11214 Pb ch=12 v=10624
11243 Pb ch=12 v=11136
11259 Pb ch=12 v=11648
11278 Pb ch=12 v=12160
11297 Pb ch=12 v=13184
11323 Pb ch=12 v=14208
11368 Pb ch=12 v=16348
11406 Pb ch=12 v=16348
11436 Pb ch=12 v=16348
11472 Pb ch=12 v=16348
11876 Pb ch=12 v=16348
11886 Pb ch=12 v=16348
11897 On ch=12 n=59 v=0
11899 Pb ch=12 v=15744
11912 Pb ch=12 v=13696
11926 Pb ch=12 v=12416
11937 Pb ch=12 v=11776
11948 Pb ch=12 v=11136
11958 Pb ch=12 v=10624
11966 Pb ch=12 v=10112
11979 Pb ch=12 v=9472
11988 Pb ch=12 v=8832
11995 Pb ch=12 v=8192
12244 Pb ch=12 v=7644
12249 Pb ch=12 v=6876
12252 Pb ch=12 v=6364
12256 Pb ch=12 v=5340
12260 Pb ch=12 v=4572
12264 Pb ch=12 v=2780
12268 Pb ch=12 v=988
12272 Pb ch=12 v=0
12280 Pb ch=12 v=0
12289 On ch=12 n=59 v=127
12297 Pb ch=12 v=2012
12302 Pb ch=12 v=4316
12305 Pb ch=12 v=6236
12310 Pb ch=12 v=7644
12313 Pb ch=12 v=8192
12329 Pb ch=12 v=8704
12334 Pb ch=12 v=9984
12337 Pb ch=12 v=10752
12342 Pb ch=12 v=11648
12345 Pb ch=12 v=12160
12353 Pb ch=12 v=13184
12376 Pb ch=12 v=12160
12379 Pb ch=12 v=11648
12384 Pb ch=12 v=11136
12390 Pb ch=12 v=10368
12393 Pb ch=12 v=9600
12396 Pb ch=12 v=9088
12401 Pb ch=12 v=8192
12406 Pb ch=12 v=8192
12451 Pb ch=12 v=8192
12476 Pb ch=12 v=8192
12513 Pb ch=12 v=9088
12518 Pb ch=12 v=10112
12521 Pb ch=12 v=11392
12526 Pb ch=12 v=12928
12529 Pb ch=12 v=14720
12534 Pb ch=12 v=16348
12537 Pb ch=12 v=16348
12548 Pb ch=12 v=16348
12564 Pb ch=12 v=16348
12569 Pb ch=12 v=16348
12572 Pb ch=12 v=14720
12579 Pb ch=12 v=12032
12582 Pb ch=12 v=10752
12585 Pb ch=12 v=8960
12590 Pb ch=12 v=8192
12616 Pb ch=12 v=8192
12620 Pb ch=12 v=7260
12624 Pb ch=12 v=6876
12628 Pb ch=12 v=6620
12635 Pb ch=12 v=5980
12664 Pb ch=12 v=6620
12668 Pb ch=12 v=6876
12672 Pb ch=12 v=7644
12678 Pb ch=12 v=8192
12704 Pb ch=12 v=8192
12707 Pb ch=12 v=9216
12713 Pb ch=12 v=10112
12716 Pb ch=12 v=10752
12720 Pb ch=12 v=11520
12724 Pb ch=12 v=12032
12729 Pb ch=12 v=12928
12732 Pb ch=12 v=13952
12744 Pb ch=12 v=15744
12763 Pb ch=12 v=13952
12766 Pb ch=12 v=12928
12771 Pb ch=12 v=11776
12776 Pb ch=12 v=10752
12779 Pb ch=12 v=9856
12784 Pb ch=12 v=8320
12788 Pb ch=12 v=8192
12817 Pb ch=12 v=8192
12822 Pb ch=12 v=7132
12827 Pb ch=12 v=6876
12835 Pb ch=12 v=5980
12841 Pb ch=12 v=5468
12880 Pb ch=12 v=5980
12883 Pb ch=12 v=6748
12888 Pb ch=12 v=7260
12892 Pb ch=12 v=8192
12921 Pb ch=12 v=8192
12924 Pb ch=12 v=8960
12929 Pb ch=12 v=9728
12932 Pb ch=12 v=10368
12937 Pb ch=12 v=11008
12942 Pb ch=12 v=11520
12971 Pb ch=12 v=10752
12976 Pb ch=12 v=10112
12979 Pb ch=12 v=9344
12984 Pb ch=12 v=8192
12988 Pb ch=12 v=8192
13016 Pb ch=12 v=8192
13020 Pb ch=12 v=7260
13028 Pb ch=12 v=6748
13035 Pb ch=12 v=6108
13046 Pb ch=12 v=5596
13064 Pb ch=12 v=6108
13068 Pb ch=12 v=6748
13072 Pb ch=12 v=7260
13076 Pb ch=12 v=8192
13107 Pb ch=12 v=8192
13112 Pb ch=12 v=8576
13120 Pb ch=12 v=9216
13144 Pb ch=12 v=8192
13252 On ch=12 n=59 v=0
13740 Pb ch=12 v=7260
13744 Pb ch=12 v=6748
13747 Pb ch=12 v=5596
13752 Pb ch=12 v=4828
13756 Pb ch=12 v=3036
13760 Pb ch=12 v=988
13763 Pb ch=12 v=0
13768 Pb ch=12 v=0
13788 On ch=12 n=59 v=127
13830 Pb ch=12 v=0
13835 Pb ch=12 v=1500
13838 Pb ch=12 v=4828
13843 Pb ch=12 v=7260
13846 Pb ch=12 v=8192
13865 Pb ch=12 v=8576
13868 Pb ch=12 v=9472
13876 Pb ch=12 v=10112
13905 Pb ch=12 v=9344
13913 Pb ch=12 v=8320
13918 Pb ch=12 v=8192
13961 Pb ch=12 v=7900
13964 Pb ch=12 v=7260
13969 Pb ch=12 v=6748
13974 Pb ch=12 v=6236
13977 Pb ch=12 v=5724
13982 Pb ch=12 v=5084
13990 Pb ch=12 v=4316
13996 Pb ch=12 v=3292
14044 Pb ch=12 v=4444
14049 Pb ch=12 v=5596
14054 Pb ch=12 v=7004
14057 Pb ch=12 v=8192
14081 Pb ch=12 v=8192
14086 Pb ch=12 v=8704
14091 Pb ch=12 v=9344
14108 Pb ch=12 v=8576
14113 Pb ch=12 v=8192
14147 Pb ch=12 v=7644
14150 Pb ch=12 v=7004
14155 Pb ch=12 v=6236
14158 Pb ch=12 v=5468
14163 Pb ch=12 v=4444
14168 Pb ch=12 v=3292
14171 Pb ch=12 v=1500
14176 Pb ch=12 v=0
14182 Pb ch=12 v=0
14190 Pb ch=12 v=0
14235 Pb ch=12 v=0
14238 Pb ch=12 v=0
14243 Pb ch=12 v=2524
14248 Pb ch=12 v=5596
14252 Pb ch=12 v=7132
14256 Pb ch=12 v=8192
14326 Pb ch=12 v=8192
14331 Pb ch=12 v=7260
14336 Pb ch=12 v=6364
14340 Pb ch=12 v=5340
14344 Pb ch=12 v=4700
14348 Pb ch=12 v=3548
14353 Pb ch=12 v=2268
14356 Pb ch=12 v=0
14361 Pb ch=12 v=0
14369 Pb ch=12 v=0
14414 Pb ch=12 v=0
14419 Pb ch=12 v=1500
14422 Pb ch=12 v=4316
14427 Pb ch=12 v=6236
14432 Pb ch=12 v=7644
14435 Pb ch=12 v=8192
14507 Pb ch=12 v=7644
14510 Pb ch=12 v=6620
14515 Pb ch=12 v=5596
14518 Pb ch=12 v=4316
14524 Pb ch=12 v=2012
14528 Pb ch=12 v=0
14532 Pb ch=12 v=0
14580 Pb ch=12 v=0
14585 Pb ch=12 v=2780
14590 Pb ch=12 v=5852
14593 Pb ch=12 v=7388
14600 Pb ch=12 v=8192
14837 On ch=12 n=59 v=0
15326 Pb ch=12 v=7004
15331 Pb ch=12 v=6108
15334 Pb ch=12 v=4316
15337 On ch=12 n=59 v=127
15339 Pb ch=12 v=0
15344 Pb ch=12 v=0
15398 Pb ch=12 v=0
15403 Pb ch=12 v=4316
15406 Pb ch=12 v=6108
15411 Pb ch=12 v=8192
15537 Pb ch=12 v=8192
15545 Pb ch=12 v=7132
15548 Pb ch=12 v=6876
15555 Pb ch=12 v=6236
15560 Pb ch=12 v=5084
15563 Pb ch=12 v=4572
15568 Pb ch=12 v=3292
15576 Pb ch=12 v=988
15584 Pb ch=12 v=0
15619 Pb ch=12 v=988
15624 Pb ch=12 v=3292
15627 Pb ch=12 v=4956
15632 Pb ch=12 v=6748
15635 Pb ch=12 v=7900
15640 Pb ch=12 v=8192
15724 Pb ch=12 v=7260
15729 Pb ch=12 v=6876
15732 Pb ch=12 v=6236
15737 Pb ch=12 v=5468
15740 Pb ch=12 v=4828
15747 Pb ch=12 v=3548
15752 Pb ch=12 v=1500
15760 Pb ch=12 v=0
15768 Pb ch=12 v=0
15796 Pb ch=12 v=0
15800 Pb ch=12 v=2012
15804 Pb ch=12 v=4444
15809 Pb ch=12 v=6236
15812 Pb ch=12 v=7388
15817 Pb ch=12 v=8192
15899 Pb ch=12 v=8192
15904 Pb ch=12 v=7004
15908 Pb ch=12 v=6748
15912 Pb ch=12 v=5852
15916 Pb ch=12 v=5084
15921 Pb ch=12 v=4572
15924 Pb ch=12 v=3548
15929 Pb ch=12 v=2524
15934 Pb ch=12 v=988
15940 Pb ch=12 v=0
15945 Pb ch=12 v=0
15952 Pb ch=12 v=0
16001 Pb ch=12 v=0
16004 Pb ch=12 v=0
16011 Pb ch=12 v=3804
16014 Pb ch=12 v=5340
16019 Pb ch=12 v=6876
16024 Pb ch=12 v=8192
16097 Pb ch=12 v=8192
16102 Pb ch=12 v=7132
16105 Pb ch=12 v=6876
16110 Pb ch=12 v=6236
16113 Pb ch=12 v=5596
16118 Pb ch=12 v=4828
16123 Pb ch=12 v=4316
16126 Pb ch=12 v=2268
16132 Pb ch=12 v=0
16137 Pb ch=12 v=0
16140 Pb ch=12 v=0
16145 Pb ch=12 v=0
16190 Pb ch=12 v=0
16195 Pb ch=12 v=1500
16198 Pb ch=12 v=4316
16204 Pb ch=12 v=6236
16209 Pb ch=12 v=7388
16212 Pb ch=12 v=8192
16471 On ch=12 n=59 v=0
17052 Pb ch=12 v=7644
17056 Pb ch=12 v=6876
17060 Pb ch=12 v=5724
17065 Pb ch=12 v=4828
17068 Pb ch=12 v=2524
17072 Pb ch=12 v=0
17076 Pb ch=12 v=0
17078 On ch=12 n=59 v=127
17081 Pb ch=12 v=0
17102 Pb ch=12 v=0
17105 Pb ch=12 v=0
17110 Pb ch=12 v=3548
17115 Pb ch=12 v=5340
17118 Pb ch=12 v=7644
17123 Pb ch=12 v=8192
17134 Pb ch=12 v=9472
17137 Pb ch=12 v=11520
17142 Pb ch=12 v=13440
17147 Pb ch=12 v=16348
17150 Pb ch=12 v=16348
17723 Pb ch=12 v=16348
17734 Pb ch=12 v=16348
17745 Pb ch=12 v=16348
17750 On ch=12 n=59 v=0
17753 Pb ch=12 v=14720
17766 Pb ch=12 v=13440
17776 Pb ch=12 v=12416
17784 Pb ch=12 v=11776
17795 Pb ch=12 v=11008
17803 Pb ch=12 v=10496
17811 Pb ch=12 v=9728
17814 Pb ch=12 v=8192
18606 On ch=12 n=59 v=127
18625 Pb ch=12 v=8448
18632 Pb ch=12 v=12416
18636 Pb ch=12 v=16348
19137 Pb ch=12 v=16348
19142 Pb ch=12 v=16348
19150 Pb ch=12 v=14720
19158 Pb ch=12 v=13440
19164 Pb ch=12 v=12160
19172 Pb ch=12 v=11520
19179 Pb ch=12 v=10880
19187 Pb ch=12 v=10112
19195 Pb ch=12 v=9600
19204 Pb ch=12 v=8832
19212 Pb ch=12 v=8192
19216 Pb ch=12 v=8192
19247 On ch=12 n=59 v=0
20320 On ch=12 n=59 v=127
20342 Pb ch=12 v=9088
20345 Pb ch=12 v=11264
20350 Pb ch=12 v=16348
20356 Pb ch=12 v=16348
20412 Pb ch=12 v=14720
20416 Pb ch=12 v=11520
20420 Pb ch=12 v=9216
20427 Pb ch=12 v=8192
20443 Pb ch=12 v=7644
20448 Pb ch=12 v=6748
20452 Pb ch=12 v=5084
20457 Pb ch=12 v=3548
20462 Pb ch=12 v=2268
20465 Pb ch=12 v=0
20470 Pb ch=12 v=0
20478 Pb ch=12 v=0
20803 Pb ch=12 v=0
21145 Pb ch=12 v=0
21156 Pb ch=12 v=0
21172 Pb ch=12 v=0
21185 Pb ch=12 v=2012
21220 Pb ch=12 v=3036
21273 Pb ch=12 v=4316
21318 Pb ch=12 v=4700
21414 Pb ch=12 v=5212
21433 Pb ch=12 v=5724
21460 Pb ch=12 v=6236
21481 Pb ch=12 v=6748
21508 Pb ch=12 v=6876
21544 Pb ch=12 v=7388
21569 Pb ch=12 v=7900
21584 Pb ch=12 v=8192
21782 On ch=12 n=59 v=0
21929 Pb ch=12 v=7900
21932 On ch=12 n=59 v=127
21936 Pb ch=12 v=6876
21942 Pb ch=12 v=6748
21961 Pb ch=12 v=7388
21964 Pb ch=12 v=8192
21984 Pb ch=12 v=8960
21988 Pb ch=12 v=12160
21993 Pb ch=12 v=16348
22638 Pb ch=12 v=12032
22641 Pb ch=12 v=8192
22709 On ch=12 n=59 v=0
23371 Pb ch=12 v=7516
23374 On ch=12 n=59 v=127
23376 Pb ch=12 v=6236
23380 Pb ch=12 v=4956
23384 Pb ch=12 v=2524
23388 Pb ch=12 v=0
23392 Pb ch=12 v=0
23436 Pb ch=12 v=0
23441 Pb ch=12 v=5084
23446 Pb ch=12 v=7388
23449 Pb ch=12 v=8192
23464 Pb ch=12 v=8192
23468 Pb ch=12 v=8960
23476 Pb ch=12 v=9600
23505 Pb ch=12 v=9088
23662 Pb ch=12 v=9600
23696 Pb ch=12 v=10112
23761 Pb ch=12 v=10624
23819 Pb ch=12 v=11136
23912 Pb ch=12 v=11648
23995 Pb ch=12 v=12160
24099 Pb ch=12 v=13184
24307 Pb ch=12 v=12160
24323 Pb ch=12 v=11648
24334 Pb ch=12 v=11136
24345 Pb ch=12 v=10624
24356 Pb ch=12 v=10112
24368 Pb ch=12 v=9600
24382 Pb ch=12 v=8960
24392 Pb ch=12 v=8448
24403 Pb ch=12 v=8192
24514 On ch=12 n=59 v=0
24900 On ch=12 n=59 v=127
24912 Pb ch=12 v=7644
24916 Pb ch=12 v=6108
24920 Pb ch=12 v=4700
24924 Pb ch=12 v=0
24929 Pb ch=12 v=0
24972 Pb ch=12 v=0
24977 Pb ch=12 v=2524
24982 Pb ch=12 v=6364
24985 Pb ch=12 v=7900
24990 Pb ch=12 v=8192
25033 Pb ch=12 v=6876
25036 Pb ch=12 v=5724
25041 Pb ch=12 v=4316
25044 Pb ch=12 v=2524
25052 Pb ch=12 v=476
25072 Pb ch=12 v=2268
25075 Pb ch=12 v=4316
25080 Pb ch=12 v=4956
25084 Pb ch=12 v=5852
25089 Pb ch=12 v=6876
25094 Pb ch=12 v=8192
25097 Pb ch=12 v=8192
25147 Pb ch=12 v=7644
25152 Pb ch=12 v=6876
25158 Pb ch=12 v=6236
25161 Pb ch=12 v=5468
25166 Pb ch=12 v=4956
25174 Pb ch=12 v=4444
25188 Pb ch=12 v=4956
25193 Pb ch=12 v=5596
25196 Pb ch=12 v=6364
25201 Pb ch=12 v=7132
25204 Pb ch=12 v=8192
25209 Pb ch=12 v=8192
25254 Pb ch=12 v=7132
25257 Pb ch=12 v=6748
25262 Pb ch=12 v=5596
25265 Pb ch=12 v=4700
25268 Pb ch=12 v=4316
25275 Pb ch=12 v=3036
25299 Pb ch=12 v=4316
25304 Pb ch=12 v=4956
25308 Pb ch=12 v=5724
25312 Pb ch=12 v=6876
25316 Pb ch=12 v=8192
25356 Pb ch=12 v=7644
25360 Pb ch=12 v=6876
25364 Pb ch=12 v=6364
25368 Pb ch=12 v=5084
25372 Pb ch=12 v=3804
25377 Pb ch=12 v=2524
25382 Pb ch=12 v=988
25390 Pb ch=12 v=0
25419 Pb ch=12 v=2268
25422 Pb ch=12 v=4316
25427 Pb ch=12 v=5084
25432 Pb ch=12 v=6748
25435 Pb ch=12 v=7388
25454 Pb ch=12 v=6492
25459 Pb ch=12 v=5340
25462 Pb ch=12 v=4444
25467 Pb ch=12 v=2780
25470 Pb ch=12 v=1500
25478 Pb ch=12 v=0
25508 Pb ch=12 v=1500
25512 Pb ch=12 v=3292
25516 Pb ch=12 v=4956
25520 Pb ch=12 v=5980
25524 Pb ch=12 v=7132
25528 Pb ch=12 v=8192
26063 On ch=12 n=59 v=0
26449 On ch=12 n=59 v=127
26460 Pb ch=12 v=9216
26465 Pb ch=12 v=11264
26468 Pb ch=12 v=13952
26473 Pb ch=12 v=16348
26896 Pb ch=12 v=13440
26900 Pb ch=12 v=8192
27321 On ch=12 n=59 v=0
27606 On ch=12 n=59 v=127
27608 Pb ch=12 v=8448
27611 Pb ch=12 v=10112
27616 Pb ch=12 v=10880
27620 Pb ch=12 v=11392
27624 Pb ch=12 v=12160
27628 Pb ch=12 v=14208
27632 Pb ch=12 v=16348
27636 Pb ch=12 v=16348
27670 Pb ch=12 v=10752
27673 Pb ch=12 v=8192
27705 On ch=12 n=59 v=0
27731 Pb ch=12 v=7388
27736 Pb ch=12 v=5596
27739 Pb ch=12 v=3548
27744 Pb ch=12 v=0
27748 On ch=12 n=59 v=127
27750 Pb ch=12 v=0
29156 Pb ch=12 v=0
29164 Pb ch=12 v=0
29168 On ch=12 n=59 v=0
29172 Pb ch=12 v=2524
29177 Pb ch=12 v=4572
29180 Pb ch=12 v=8192
29267 Pb ch=12 v=7004
29268 On ch=12 n=59 v=127
29272 Pb ch=12 v=3804
29276 Pb ch=12 v=0
29355 Pb ch=12 v=0
29358 Pb ch=12 v=4316
29363 Pb ch=12 v=6748
29366 Pb ch=12 v=8192
29426 On ch=12 n=59 v=0
29427 Pb ch=12 v=7388
29430 Pb ch=12 v=5980
29435 Pb ch=12 v=3548
29438 Pb ch=12 v=0
29441 Pb ch=12 v=0
29454 On ch=12 n=59 v=127
29537 Pb ch=12 v=0
29542 Pb ch=12 v=3548
29547 Pb ch=12 v=5980
29550 Pb ch=12 v=8192
29598 On ch=12 n=59 v=0
29648 On ch=12 n=59 v=127
29664 Pb ch=12 v=8576
29668 Pb ch=12 v=9472
29672 Pb ch=12 v=10240
29676 Pb ch=12 v=10880
29680 Pb ch=12 v=11392
29684 Pb ch=12 v=11904
29692 Pb ch=12 v=12672
29707 Pb ch=12 v=13696
29720 Pb ch=12 v=15232
29731 Pb ch=12 v=16348
29742 Pb ch=12 v=16348
29934 Pb ch=12 v=16348
30265 Pb ch=12 v=16348
30280 Pb ch=12 v=16348
30291 Pb ch=12 v=15232
30305 Pb ch=12 v=13440
30320 Pb ch=12 v=12160
30331 Pb ch=12 v=11648
30332 On ch=12 n=59 v=0
30342 Pb ch=12 v=11008
30352 Pb ch=12 v=10368
30360 Pb ch=12 v=9856
30368 Pb ch=12 v=9216
30371 Pb ch=12 v=8192
30670 Pb ch=12 v=7516
30673 Pb ch=12 v=6748
30676 Pb ch=12 v=4956
30681 Pb ch=12 v=3036
30683 On ch=12 n=59 v=127
30686 Pb ch=12 v=0
30691 Pb ch=12 v=0
30734 Pb ch=12 v=1500
30739 Pb ch=12 v=5340
30742 Pb ch=12 v=7516
30747 Pb ch=12 v=8192
30764 Pb ch=12 v=8192
30769 Pb ch=12 v=8576
30820 Pb ch=12 v=9088
30870 Pb ch=12 v=9600
30900 Pb ch=12 v=10112
30953 Pb ch=12 v=10624
30988 Pb ch=12 v=11136
31025 Pb ch=12 v=11648
31097 Pb ch=12 v=12160
31158 Pb ch=12 v=13184
31209 Pb ch=12 v=14208
31260 Pb ch=12 v=16348
31315 Pb ch=12 v=16348
31356 Pb ch=12 v=16348
31456 Pb ch=12 v=16348
31513 Pb ch=12 v=16348
31539 Pb ch=12 v=16348
31564 Pb ch=12 v=16348
31582 Pb ch=12 v=14208
31595 Pb ch=12 v=13184
31606 Pb ch=12 v=12160
31617 Pb ch=12 v=11648
31627 Pb ch=12 v=11008
31638 On ch=12 n=59 v=0
31640 Pb ch=12 v=10368
31654 Pb ch=12 v=9856
31672 Pb ch=12 v=9344
31689 Pb ch=12 v=8832
31702 Pb ch=12 v=8320
31718 Pb ch=12 v=8192
32188 Pb ch=12 v=8192
32192 Pb ch=12 v=6748
32195 Pb ch=12 v=4956
32200 Pb ch=12 v=2780
32204 Pb ch=12 v=0
32206 Pb ch=12 v=0
32217 On ch=12 n=59 v=127
32254 Pb ch=12 v=0
32260 Pb ch=12 v=988
32264 Pb ch=12 v=6876
32268 Pb ch=12 v=8192
32286 Pb ch=12 v=8192
32315 Pb ch=12 v=8192
32489 Pb ch=12 v=8192
32563 Pb ch=12 v=8576
32768 Pb ch=12 v=9088
33001 Pb ch=12 v=8576
33076 Pb ch=12 v=8192
33120 Pb ch=12 v=8192
33351 On ch=12 n=59 v=0
33761 Pb ch=12 v=7900
33766 Pb ch=12 v=6876
33769 Pb ch=12 v=5980
33772 On ch=12 n=59 v=127
33776 Pb ch=12 v=4316
33780 Pb ch=12 v=1500
33784 Pb ch=12 v=0
33788 Pb ch=12 v=0
34558 Pb ch=12 v=0
34659 Pb ch=12 v=0
34724 Pb ch=12 v=0
34782 Pb ch=12 v=988
34830 Pb ch=12 v=2524
34900 Pb ch=12 v=3548
34952 Pb ch=12 v=4444
35011 Pb ch=12 v=4956
35067 Pb ch=12 v=5468
35140 Pb ch=12 v=5980
35177 Pb ch=12 v=6492
35230 Pb ch=12 v=6876
35260 Pb ch=12 v=7132
35272 Pb ch=12 v=7644
35278 Pb ch=12 v=8192
35283 Pb ch=12 v=8192
35349 On ch=12 n=59 v=0
35435 On ch=12 n=59 v=127
35457 Pb ch=12 v=8320
35460 Pb ch=12 v=9856
35465 Pb ch=12 v=12160
35470 Pb ch=12 v=16348
35475 Pb ch=12 v=16348
35953 Pb ch=12 v=8192
35991 On ch=12 n=59 v=0
36459 Pb ch=12 v=8192
36464 Pb ch=12 v=9728
36467 Pb ch=12 v=12928
36472 Pb ch=12 v=16348
36478 On ch=12 n=59 v=127
36708 Pb ch=12 v=16348
36713 Pb ch=12 v=15232
36716 Pb ch=12 v=11264
36721 Pb ch=12 v=8192
36748 On ch=12 n=59 v=0
36856 Pb ch=12 v=8192
36859 Pb ch=12 v=9984
36864 Pb ch=12 v=11392
36870 Pb ch=12 v=16348
36873 Pb ch=12 v=16348
36884 On ch=12 n=59 v=127
37068 Pb ch=12 v=16348
37072 Pb ch=12 v=16348
37076 Pb ch=12 v=14208
37081 Pb ch=12 v=11776
37086 Pb ch=12 v=10112
37089 Pb ch=12 v=8704
37094 Pb ch=12 v=8192
37156 On ch=12 n=59 v=0
37244 Pb ch=12 v=8192
37251 Pb ch=12 v=9984
37256 Pb ch=12 v=13696
37259 Pb ch=12 v=16348
37270 On ch=12 n=59 v=127
37430 Pb ch=12 v=16348
37435 Pb ch=12 v=14720
37438 Pb ch=12 v=12672
37444 Pb ch=12 v=11136
37449 Pb ch=12 v=10112
37452 Pb ch=12 v=9472
37457 Pb ch=12 v=8576
37460 Pb ch=12 v=8192
37547 Pb ch=12 v=8192
37555 Pb ch=12 v=7388
37563 Pb ch=12 v=6876
37566 Pb ch=12 v=6620
37574 Pb ch=12 v=6108
37580 Pb ch=12 v=5596
37588 Pb ch=12 v=5084
37600 Pb ch=12 v=4444
37608 Pb ch=12 v=3292
37616 Pb ch=12 v=1500
37622 Pb ch=12 v=0
37630 Pb ch=12 v=0
37641 Pb ch=12 v=0
37644 Pb ch=12 v=0
38513 Pb ch=12 v=0
38520 Pb ch=12 v=0
38524 Pb ch=12 v=476
38528 Pb ch=12 v=2524
38532 Pb ch=12 v=3804
38537 Pb ch=12 v=4828
38542 Pb ch=12 v=5468
38545 Pb ch=12 v=5980
38550 Pb ch=12 v=6748
38555 Pb ch=12 v=6876
38558 Pb ch=12 v=7516
38563 Pb ch=12 v=8192
38566 Pb ch=12 v=8192
38575 On ch=12 n=59 v=0
38740 Pb ch=12 v=7260
38744 Pb ch=12 v=6492
38748 Pb ch=12 v=4700
38752 Pb ch=12 v=2268
38756 Pb ch=12 v=0
38769 On ch=12 n=59 v=127
38830 Pb ch=12 v=0
38833 Pb ch=12 v=4828
38838 Pb ch=12 v=6876
38841 Pb ch=12 v=8192
38960 Pb ch=12 v=8192
38987 Pb ch=12 v=8448
39004 Pb ch=12 v=8960
39033 Pb ch=12 v=9472
39076 Pb ch=12 v=9984
39115 Pb ch=12 v=10496
39140 Pb ch=12 v=11008
39158 Pb ch=12 v=11520
39182 Pb ch=12 v=12032
39203 Pb ch=12 v=12928
39232 Pb ch=12 v=13952
39268 Pb ch=12 v=16348
39312 Pb ch=12 v=16348
39339 Pb ch=12 v=16348
39369 Pb ch=12 v=16348
39500 Pb ch=12 v=16348
39507 Pb ch=12 v=16348
39515 Pb ch=12 v=14720
39520 Pb ch=12 v=13440
39526 Pb ch=12 v=12032
39534 Pb ch=12 v=11264
39542 Pb ch=12 v=10368
39548 Pb ch=12 v=9600
39558 Pb ch=12 v=8576
39563 Pb ch=12 v=8192
39617 On ch=12 n=59 v=0
40212 Pb ch=12 v=7644
40217 Pb ch=12 v=6876
40220 Pb ch=12 v=6236
40225 Pb ch=12 v=5212
40228 Pb ch=12 v=4316
40233 Pb ch=12 v=2524
40236 Pb ch=12 v=476
40241 Pb ch=12 v=0
40246 Pb ch=12 v=0
40275 On ch=12 n=59 v=127
40299 Pb ch=12 v=988
40304 Pb ch=12 v=5340
40307 Pb ch=12 v=7260
40312 Pb ch=12 v=8192
40328 Pb ch=12 v=8704
40332 Pb ch=12 v=9600
40336 Pb ch=12 v=10112
40363 Pb ch=12 v=9216
40366 Pb ch=12 v=8192
40452 On ch=12 n=59 v=0
40476 Pb ch=12 v=9344
40481 Pb ch=12 v=10880
40484 Pb ch=12 v=15232
40489 Pb ch=12 v=16348
40710 Pb ch=12 v=16348
40713 Pb ch=12 v=8192
41081 Pb ch=12 v=8576
41084 Pb ch=12 v=9984
41092 Pb ch=12 v=11520
41096 Pb ch=12 v=15744
41099 Pb ch=12 v=16348
41104 Pb ch=12 v=16348
41116 On ch=12 n=59 v=127
41652 Pb ch=12 v=16348
41656 Pb ch=12 v=8192
41672 On ch=12 n=59 v=0
41768 Pb ch=12 v=7644
41771 Pb ch=12 v=7132
41776 Pb ch=12 v=6364
41780 Pb ch=12 v=5468
41784 Pb ch=12 v=3548
41788 Pb ch=12 v=476
41792 Pb ch=12 v=0
41809 On ch=12 n=59 v=127
41846 Pb ch=12 v=0
41849 Pb ch=12 v=4316
41854 Pb ch=12 v=7388
41859 Pb ch=12 v=8192
41870 Pb ch=12 v=8192
41875 Pb ch=12 v=9472
41880 Pb ch=12 v=10112
41883 Pb ch=12 v=11008
41891 Pb ch=12 v=11648
41916 Pb ch=12 v=12160
42054 Pb ch=12 v=11648
42064 Pb ch=12 v=11008
42072 Pb ch=12 v=10368
42081 Pb ch=12 v=9728
42088 Pb ch=12 v=9088
42091 Pb ch=12 v=8576
42096 Pb ch=12 v=8192
42650 On ch=12 n=59 v=0
43408 On ch=12 n=59 v=127
43564 On ch=12 n=59 v=0
43816 On ch=12 n=59 v=127
43921 On ch=12 n=59 v=0
44273 Pb ch=12 v=6876
44278 Pb ch=12 v=5852
44281 Pb ch=12 v=4316
44288 Pb ch=12 v=0
44289 Pb ch=12 v=0
44294 Pb ch=12 v=0
44321 On ch=12 n=59 v=127
44344 Pb ch=12 v=0
44347 Pb ch=12 v=4700
44352 Pb ch=12 v=8192
44377 On ch=12 n=59 v=0
46456 Pb ch=12 v=8960
46459 Pb ch=12 v=10240
46462 On ch=12 n=59 v=127
46465 Pb ch=12 v=13696
46472 Pb ch=12 v=16348
46542 Pb ch=12 v=9856
46545 Pb ch=12 v=7900
46550 Pb ch=12 v=8192
46598 On ch=12 n=59 v=0
46598 Meta TrkEnd
TrkEnd
MTrk
0 Meta TrkName "Click Track"
0 On ch=13 n=73 v=64
70 On ch=13 n=73 v=0
192 On ch=13 n=73 v=64
262 On ch=13 n=73 v=0
384 On ch=13 n=73 v=64
454 On ch=13 n=73 v=0
576 On ch=13 n=73 v=64
646 On ch=13 n=73 v=0
768 On ch=13 n=73 v=64
838 On ch=13 n=73 v=0
960 On ch=13 n=73 v=64
1030 On ch=13 n=73 v=0
1152 On ch=13 n=73 v=64
1222 On ch=13 n=73 v=0
1344 On ch=13 n=73 v=64
1414 On ch=13 n=73 v=0
1536 On ch=13 n=73 v=64
1606 On ch=13 n=73 v=0
1728 On ch=13 n=73 v=64
1798 On ch=13 n=73 v=0
1920 On ch=13 n=73 v=64
1990 On ch=13 n=73 v=0
2112 On ch=13 n=73 v=64
2182 On ch=13 n=73 v=0
2304 On ch=13 n=73 v=64
2374 On ch=13 n=73 v=0
2496 On ch=13 n=73 v=64
2566 On ch=13 n=73 v=0
2688 On ch=13 n=73 v=64
2758 On ch=13 n=73 v=0
2880 On ch=13 n=73 v=64
2950 On ch=13 n=73 v=0
3072 On ch=13 n=73 v=64
3142 On ch=13 n=73 v=0
3264 On ch=13 n=73 v=64
3334 On ch=13 n=73 v=0
3456 On ch=13 n=73 v=64
3526 On ch=13 n=73 v=0
3648 On ch=13 n=73 v=64
3718 On ch=13 n=73 v=0
3840 On ch=13 n=73 v=64
3910 On ch=13 n=73 v=0
4032 On ch=13 n=73 v=64
4102 On ch=13 n=73 v=0
4224 On ch=13 n=73 v=64
4294 On ch=13 n=73 v=0
4416 On ch=13 n=73 v=64
4486 On ch=13 n=73 v=0
4608 On ch=13 n=73 v=64
4678 On ch=13 n=73 v=0
4800 On ch=13 n=73 v=64
4870 On ch=13 n=73 v=0
4992 On ch=13 n=73 v=64
5062 On ch=13 n=73 v=0
5184 On ch=13 n=73 v=64
5254 On ch=13 n=73 v=0
5376 On ch=13 n=73 v=64
5446 On ch=13 n=73 v=0
5568 On ch=13 n=73 v=64
5638 On ch=13 n=73 v=0
5760 On ch=13 n=73 v=64
5830 On ch=13 n=73 v=0
5952 On ch=13 n=73 v=64
6022 On ch=13 n=73 v=0
6144 On ch=13 n=73 v=64
6214 On ch=13 n=73 v=0
6336 On ch=13 n=73 v=64
6406 On ch=13 n=73 v=0
6528 On ch=13 n=73 v=64
6598 On ch=13 n=73 v=0
6720 On ch=13 n=73 v=64
6790 On ch=13 n=73 v=0
6912 On ch=13 n=73 v=64
6982 On ch=13 n=73 v=0
7104 On ch=13 n=73 v=64
7174 On ch=13 n=73 v=0
7296 On ch=13 n=73 v=64
7366 On ch=13 n=73 v=0
7488 On ch=13 n=73 v=64
7558 On ch=13 n=73 v=0
7680 On ch=13 n=73 v=64
7750 On ch=13 n=73 v=0
7872 On ch=13 n=73 v=64
7942 On ch=13 n=73 v=0
8064 On ch=13 n=73 v=64
8134 On ch=13 n=73 v=0
8256 On ch=13 n=73 v=64
8326 On ch=13 n=73 v=0
8448 On ch=13 n=73 v=64
8518 On ch=13 n=73 v=0
8640 On ch=13 n=73 v=64
8710 On ch=13 n=73 v=0
8832 On ch=13 n=73 v=64
8902 On ch=13 n=73 v=0
9024 On ch=13 n=73 v=64
9094 On ch=13 n=73 v=0
9216 On ch=13 n=73 v=64
9286 On ch=13 n=73 v=0
9408 On ch=13 n=73 v=64
9478 On ch=13 n=73 v=0
9600 On ch=13 n=73 v=64
9670 On ch=13 n=73 v=0
9792 On ch=13 n=73 v=64
9862 On ch=13 n=73 v=0
9984 On ch=13 n=73 v=64
10054 On ch=13 n=73 v=0
10176 On ch=13 n=73 v=64
10246 On ch=13 n=73 v=0
10368 On ch=13 n=73 v=64
10438 On ch=13 n=73 v=0
10560 On ch=13 n=73 v=64
10630 On ch=13 n=73 v=0
10752 On ch=13 n=73 v=64
10822 On ch=13 n=73 v=0
10944 On ch=13 n=73 v=64
11014 On ch=13 n=73 v=0
11136 On ch=13 n=73 v=64
11206 On ch=13 n=73 v=0
11328 On ch=13 n=73 v=64
11398 On ch=13 n=73 v=0
11520 On ch=13 n=73 v=64
11590 On ch=13 n=73 v=0
11712 On ch=13 n=73 v=64
11782 On ch=13 n=73 v=0
11904 On ch=13 n=73 v=64
11974 On ch=13 n=73 v=0
12096 On ch=13 n=73 v=64
12166 On ch=13 n=73 v=0
12288 On ch=13 n=73 v=64
12358 On ch=13 n=73 v=0
12480 On ch=13 n=73 v=64
12550 On ch=13 n=73 v=0
12672 On ch=13 n=73 v=64
12742 On ch=13 n=73 v=0
12864 On ch=13 n=73 v=64
12934 On ch=13 n=73 v=0
13056 On ch=13 n=73 v=64
13126 On ch=13 n=73 v=0
13248 On ch=13 n=73 v=64
13318 On ch=13 n=73 v=0
13440 On ch=13 n=73 v=64
13510 On ch=13 n=73 v=0
13632 On ch=13 n=73 v=64
13702 On ch=13 n=73 v=0
13824 On ch=13 n=73 v=64
13894 On ch=13 n=73 v=0
14016 On ch=13 n=73 v=64
14086 On ch=13 n=73 v=0
14208 On ch=13 n=73 v=64
14278 On ch=13 n=73 v=0
14400 On ch=13 n=73 v=64
14470 On ch=13 n=73 v=0
14592 On ch=13 n=73 v=64
14662 On ch=13 n=73 v=0
14784 On ch=13 n=73 v=64
14854 On ch=13 n=73 v=0
14976 On ch=13 n=73 v=64
15046 On ch=13 n=73 v=0
15168 On ch=13 n=73 v=64
15238 On ch=13 n=73 v=0
15360 On ch=13 n=73 v=64
15430 On ch=13 n=73 v=0
15552 On ch=13 n=73 v=64
15622 On ch=13 n=73 v=0
15744 On ch=13 n=73 v=64
15814 On ch=13 n=73 v=0
15936 On ch=13 n=73 v=64
16006 On ch=13 n=73 v=0
16128 On ch=13 n=73 v=64
16198 On ch=13 n=73 v=0
16320 On ch=13 n=73 v=64
16390 On ch=13 n=73 v=0
16512 On ch=13 n=73 v=64
16582 On ch=13 n=73 v=0
16704 On ch=13 n=73 v=64
16774 On ch=13 n=73 v=0
16896 On ch=13 n=73 v=64
16966 On ch=13 n=73 v=0
17088 On ch=13 n=73 v=64
17158 On ch=13 n=73 v=0
17280 On ch=13 n=73 v=64
17350 On ch=13 n=73 v=0
17472 On ch=13 n=73 v=64
17542 On ch=13 n=73 v=0
17664 On ch=13 n=73 v=64
17734 On ch=13 n=73 v=0
17856 On ch=13 n=73 v=64
17926 On ch=13 n=73 v=0
18048 On ch=13 n=73 v=64
18118 On ch=13 n=73 v=0
18240 On ch=13 n=73 v=64
18310 On ch=13 n=73 v=0
18432 On ch=13 n=73 v=64
18502 On ch=13 n=73 v=0
18624 On ch=13 n=73 v=64
18694 On ch=13 n=73 v=0
18816 On ch=13 n=73 v=64
18886 On ch=13 n=73 v=0
19008 On ch=13 n=73 v=64
19078 On ch=13 n=73 v=0
19200 On ch=13 n=73 v=64
19270 On ch=13 n=73 v=0
19392 On ch=13 n=73 v=64
19462 On ch=13 n=73 v=0
19584 On ch=13 n=73 v=64
19654 On ch=13 n=73 v=0
19776 On ch=13 n=73 v=64
19846 On ch=13 n=73 v=0
19968 On ch=13 n=73 v=64
20038 On ch=13 n=73 v=0
20160 On ch=13 n=73 v=64
20230 On ch=13 n=73 v=0
20352 On ch=13 n=73 v=64
20422 On ch=13 n=73 v=0
20544 On ch=13 n=73 v=64
20614 On ch=13 n=73 v=0
20736 On ch=13 n=73 v=64
20806 On ch=13 n=73 v=0
20928 On ch=13 n=73 v=64
20998 On ch=13 n=73 v=0
21120 On ch=13 n=73 v=64
21190 On ch=13 n=73 v=0
21312 On ch=13 n=73 v=64
21382 On ch=13 n=73 v=0
21504 On ch=13 n=73 v=64
21574 On ch=13 n=73 v=0
21696 On ch=13 n=73 v=64
21766 On ch=13 n=73 v=0
21888 On ch=13 n=73 v=64
21958 On ch=13 n=73 v=0
22080 On ch=13 n=73 v=64
22150 On ch=13 n=73 v=0
22272 On ch=13 n=73 v=64
22342 On ch=13 n=73 v=0
22464 On ch=13 n=73 v=64
22534 On ch=13 n=73 v=0
22656 On ch=13 n=73 v=64
22726 On ch=13 n=73 v=0
22848 On ch=13 n=73 v=64
22918 On ch=13 n=73 v=0
23040 On ch=13 n=73 v=64
23110 On ch=13 n=73 v=0
23232 On ch=13 n=73 v=64
23302 On ch=13 n=73 v=0
23424 On ch=13 n=73 v=64
23494 On ch=13 n=73 v=0
23616 On ch=13 n=73 v=64
23686 On ch=13 n=73 v=0
23808 On ch=13 n=73 v=64
23878 On ch=13 n=73 v=0
24000 On ch=13 n=73 v=64
24070 On ch=13 n=73 v=0
24192 On ch=13 n=73 v=64
24262 On ch=13 n=73 v=0
24384 On ch=13 n=73 v=64
24454 On ch=13 n=73 v=0
24576 On ch=13 n=73 v=64
24646 On ch=13 n=73 v=0
24768 On ch=13 n=73 v=64
24838 On ch=13 n=73 v=0
24960 On ch=13 n=73 v=64
25030 On ch=13 n=73 v=0
25152 On ch=13 n=73 v=64
25222 On ch=13 n=73 v=0
25344 On ch=13 n=73 v=64
25414 On ch=13 n=73 v=0
25536 On ch=13 n=73 v=64
25606 On ch=13 n=73 v=0
25728 On ch=13 n=73 v=64
25798 On ch=13 n=73 v=0
25920 On ch=13 n=73 v=64
25990 On ch=13 n=73 v=0
26112 On ch=13 n=73 v=64
26182 On ch=13 n=73 v=0
26304 On ch=13 n=73 v=64
26374 On ch=13 n=73 v=0
26496 On ch=13 n=73 v=64
26566 On ch=13 n=73 v=0
26688 On ch=13 n=73 v=64
26758 On ch=13 n=73 v=0
26880 On ch=13 n=73 v=64
26950 On ch=13 n=73 v=0
27072 On ch=13 n=73 v=64
27142 On ch=13 n=73 v=0
27264 On ch=13 n=73 v=64
27334 On ch=13 n=73 v=0
27456 On ch=13 n=73 v=64
27526 On ch=13 n=73 v=0
27648 On ch=13 n=73 v=64
27718 On ch=13 n=73 v=0
27840 On ch=13 n=73 v=64
27910 On ch=13 n=73 v=0
28032 On ch=13 n=73 v=64
28102 On ch=13 n=73 v=0
28224 On ch=13 n=73 v=64
28294 On ch=13 n=73 v=0
28416 On ch=13 n=73 v=64
28486 On ch=13 n=73 v=0
28608 On ch=13 n=73 v=64
28678 On ch=13 n=73 v=0
28800 On ch=13 n=73 v=64
28870 On ch=13 n=73 v=0
28992 On ch=13 n=73 v=64
29062 On ch=13 n=73 v=0
29184 On ch=13 n=73 v=64
29254 On ch=13 n=73 v=0
29376 On ch=13 n=73 v=64
29446 On ch=13 n=73 v=0
29568 On ch=13 n=73 v=64
29638 On ch=13 n=73 v=0
29760 On ch=13 n=73 v=64
29830 On ch=13 n=73 v=0
29952 On ch=13 n=73 v=64
30022 On ch=13 n=73 v=0
30144 On ch=13 n=73 v=64
30214 On ch=13 n=73 v=0
30336 On ch=13 n=73 v=64
30406 On ch=13 n=73 v=0
30528 On ch=13 n=73 v=64
30598 On ch=13 n=73 v=0
30720 On ch=13 n=73 v=64
30790 On ch=13 n=73 v=0
30912 On ch=13 n=73 v=64
30982 On ch=13 n=73 v=0
31104 On ch=13 n=73 v=64
31174 On ch=13 n=73 v=0
31296 On ch=13 n=73 v=64
31366 On ch=13 n=73 v=0
31488 On ch=13 n=73 v=64
31558 On ch=13 n=73 v=0
31680 On ch=13 n=73 v=64
31750 On ch=13 n=73 v=0
31872 On ch=13 n=73 v=64
31942 On ch=13 n=73 v=0
32064 On ch=13 n=73 v=64
32134 On ch=13 n=73 v=0
32256 On ch=13 n=73 v=64
32326 On ch=13 n=73 v=0
32448 On ch=13 n=73 v=64
32518 On ch=13 n=73 v=0
32640 On ch=13 n=73 v=64
32710 On ch=13 n=73 v=0
32832 On ch=13 n=73 v=64
32902 On ch=13 n=73 v=0
33024 On ch=13 n=73 v=64
33094 On ch=13 n=73 v=0
33216 On ch=13 n=73 v=64
33286 On ch=13 n=73 v=0
33408 On ch=13 n=73 v=64
33478 On ch=13 n=73 v=0
33600 On ch=13 n=73 v=64
33670 On ch=13 n=73 v=0
33792 On ch=13 n=73 v=64
33862 On ch=13 n=73 v=0
33984 On ch=13 n=73 v=64
34054 On ch=13 n=73 v=0
34176 On ch=13 n=73 v=64
34246 On ch=13 n=73 v=0
34368 On ch=13 n=73 v=64
34438 On ch=13 n=73 v=0
34560 On ch=13 n=73 v=64
34630 On ch=13 n=73 v=0
34752 On ch=13 n=73 v=64
34822 On ch=13 n=73 v=0
34944 On ch=13 n=73 v=64
35014 On ch=13 n=73 v=0
35136 On ch=13 n=73 v=64
35206 On ch=13 n=73 v=0
35328 On ch=13 n=73 v=64
35398 On ch=13 n=73 v=0
35520 On ch=13 n=73 v=64
35590 On ch=13 n=73 v=0
35712 On ch=13 n=73 v=64
35782 On ch=13 n=73 v=0
35904 On ch=13 n=73 v=64
35974 On ch=13 n=73 v=0
36096 On ch=13 n=73 v=64
36166 On ch=13 n=73 v=0
36288 On ch=13 n=73 v=64
36358 On ch=13 n=73 v=0
36480 On ch=13 n=73 v=64
36550 On ch=13 n=73 v=0
36672 On ch=13 n=73 v=64
36742 On ch=13 n=73 v=0
36864 On ch=13 n=73 v=64
36934 On ch=13 n=73 v=0
37056 On ch=13 n=73 v=64
37126 On ch=13 n=73 v=0
37248 On ch=13 n=73 v=64
37318 On ch=13 n=73 v=0
37440 On ch=13 n=73 v=64
37510 On ch=13 n=73 v=0
37632 On ch=13 n=73 v=64
37702 On ch=13 n=73 v=0
37824 On ch=13 n=73 v=64
37894 On ch=13 n=73 v=0
38016 On ch=13 n=73 v=64
38086 On ch=13 n=73 v=0
38208 On ch=13 n=73 v=64
38278 On ch=13 n=73 v=0
38400 On ch=13 n=73 v=64
38470 On ch=13 n=73 v=0
38592 On ch=13 n=73 v=64
38662 On ch=13 n=73 v=0
38784 On ch=13 n=73 v=64
38854 On ch=13 n=73 v=0
38976 On ch=13 n=73 v=64
39046 On ch=13 n=73 v=0
39168 On ch=13 n=73 v=64
39238 On ch=13 n=73 v=0
39360 On ch=13 n=73 v=64
39430 On ch=13 n=73 v=0
39552 On ch=13 n=73 v=64
39622 On ch=13 n=73 v=0
39744 On ch=13 n=73 v=64
39814 On ch=13 n=73 v=0
39936 On ch=13 n=73 v=64
40006 On ch=13 n=73 v=0
40128 On ch=13 n=73 v=64
40198 On ch=13 n=73 v=0
40320 On ch=13 n=73 v=64
40390 On ch=13 n=73 v=0
40512 On ch=13 n=73 v=64
40582 On ch=13 n=73 v=0
40704 On ch=13 n=73 v=64
40774 On ch=13 n=73 v=0
40896 On ch=13 n=73 v=64
40966 On ch=13 n=73 v=0
41088 On ch=13 n=73 v=64
41158 On ch=13 n=73 v=0
41280 On ch=13 n=73 v=64
41350 On ch=13 n=73 v=0
41472 On ch=13 n=73 v=64
41542 On ch=13 n=73 v=0
41664 On ch=13 n=73 v=64
41734 On ch=13 n=73 v=0
41856 On ch=13 n=73 v=64
41926 On ch=13 n=73 v=0
42048 On ch=13 n=73 v=64
42118 On ch=13 n=73 v=0
42240 On ch=13 n=73 v=64
42310 On ch=13 n=73 v=0
42432 On ch=13 n=73 v=64
42502 On ch=13 n=73 v=0
42624 On ch=13 n=73 v=64
42694 On ch=13 n=73 v=0
42816 On ch=13 n=73 v=64
42886 On ch=13 n=73 v=0
43008 On ch=13 n=73 v=64
43078 On ch=13 n=73 v=0
43200 On ch=13 n=73 v=64
43270 On ch=13 n=73 v=0
43392 On ch=13 n=73 v=64
43462 On ch=13 n=73 v=0
43584 On ch=13 n=73 v=64
43654 On ch=13 n=73 v=0
43776 On ch=13 n=73 v=64
43846 On ch=13 n=73 v=0
43968 On ch=13 n=73 v=64
44038 On ch=13 n=73 v=0
44160 On ch=13 n=73 v=64
44230 On ch=13 n=73 v=0
44352 On ch=13 n=73 v=64
44422 On ch=13 n=73 v=0
44544 On ch=13 n=73 v=64
44614 On ch=13 n=73 v=0
44736 On ch=13 n=73 v=64
44806 On ch=13 n=73 v=0
44928 On ch=13 n=73 v=64
44998 On ch=13 n=73 v=0
45120 On ch=13 n=73 v=64
45190 On ch=13 n=73 v=0
45312 On ch=13 n=73 v=64
45382 On ch=13 n=73 v=0
45504 On ch=13 n=73 v=64
45574 On ch=13 n=73 v=0
45696 On ch=13 n=73 v=64
45766 On ch=13 n=73 v=0
45888 On ch=13 n=73 v=64
45958 On ch=13 n=73 v=0
46080 On ch=13 n=73 v=64
46150 On ch=13 n=73 v=0
46272 On ch=13 n=73 v=64
46342 On ch=13 n=73 v=0
46464 On ch=13 n=73 v=64
46534 On ch=13 n=73 v=0
46656 On ch=13 n=73 v=64
46726 On ch=13 n=73 v=0
46848 On ch=13 n=73 v=64
46918 On ch=13 n=73 v=0
47040 On ch=13 n=73 v=64
47110 On ch=13 n=73 v=0
47232 On ch=13 n=73 v=64
47302 On ch=13 n=73 v=0
47424 On ch=13 n=73 v=64
47494 On ch=13 n=73 v=0
47616 On ch=13 n=73 v=64
47686 On ch=13 n=73 v=0
47808 On ch=13 n=73 v=64
47878 On ch=13 n=73 v=0
48000 On ch=13 n=73 v=64
48070 On ch=13 n=73 v=0
48192 On ch=13 n=73 v=64
48262 On ch=13 n=73 v=0
48384 On ch=13 n=73 v=64
48454 On ch=13 n=73 v=0
48576 On ch=13 n=73 v=64
48646 On ch=13 n=73 v=0
48768 On ch=13 n=73 v=64
48838 On ch=13 n=73 v=0
48960 On ch=13 n=73 v=64
49030 On ch=13 n=73 v=0
49030 Meta TrkEnd
TrkEnd
